<svg width="16" height="28" viewBox="0 0 16 28" fill="none" xmlns="http://www.w3.org/2000/svg">
<path d="M7.99984 27.3337C5.95539 27.3337 4.22206 26.6225 2.79984 25.2003C1.37761 23.7781 0.666504 22.0448 0.666504 20.0003V6.00033C0.666504 4.53366 1.18873 3.2781 2.23317 2.23366C3.27762 1.18921 4.53317 0.666992 5.99984 0.666992C7.4665 0.666992 8.72206 1.18921 9.7665 2.23366C10.8109 3.2781 11.3332 4.53366 11.3332 6.00033V18.667C11.3332 19.6003 11.0109 20.3892 10.3665 21.0337C9.72206 21.6781 8.93317 22.0003 7.99984 22.0003C7.0665 22.0003 6.27762 21.6781 5.63317 21.0337C4.98873 20.3892 4.6665 19.6003 4.6665 18.667V6.00033H6.6665V18.667C6.6665 19.0448 6.7945 19.3612 7.0505 19.6163C7.30562 19.8723 7.62206 20.0003 7.99984 20.0003C8.37762 20.0003 8.6945 19.8723 8.9505 19.6163C9.20562 19.3612 9.33317 19.0448 9.33317 18.667V6.00033C9.33317 5.06699 9.01095 4.2781 8.3665 3.63366C7.72206 2.98921 6.93317 2.66699 5.99984 2.66699C5.0665 2.66699 4.27762 2.98921 3.63317 3.63366C2.98873 4.2781 2.6665 5.06699 2.6665 6.00033V20.0003C2.6665 21.467 3.18873 22.7225 4.23317 23.767C5.27762 24.8114 6.53317 25.3337 7.99984 25.3337C9.4665 25.3337 10.7221 24.8114 11.7665 23.767C12.8109 22.7225 13.3332 21.467 13.3332 20.0003V6.00033H15.3332V20.0003C15.3332 22.0448 14.6221 23.7781 13.1998 25.2003C11.7776 26.6225 10.0443 27.3337 7.99984 27.3337Z" fill="#1D242C"/>
</svg>
