<svg width="35" height="17" viewBox="0 0 35 17" fill="none" xmlns="http://www.w3.org/2000/svg">
<path d="M9.16683 16.8999C6.86127 16.8999 4.89627 16.0872 3.27183 14.4616C1.64627 12.8372 0.833496 10.8722 0.833496 8.56661C0.833496 6.26105 1.64627 4.2955 3.27183 2.66994C4.89627 1.0455 6.86127 0.233276 9.16683 0.233276H14.1668C14.6391 0.233276 15.0352 0.392721 15.3552 0.71161C15.6741 1.03161 15.8335 1.42772 15.8335 1.89994C15.8335 2.37217 15.6741 2.76772 15.3552 3.08661C15.0352 3.40661 14.6391 3.56661 14.1668 3.56661H9.16683C7.77794 3.56661 6.59738 4.05272 5.62516 5.02494C4.65294 5.99717 4.16683 7.17772 4.16683 8.56661C4.16683 9.9555 4.65294 11.1361 5.62516 12.1083C6.59738 13.0805 7.77794 13.5666 9.16683 13.5666H14.1668C14.6391 13.5666 15.0352 13.7261 15.3552 14.0449C15.6741 14.3649 15.8335 14.7611 15.8335 15.2333C15.8335 15.7055 15.6741 16.1011 15.3552 16.4199C15.0352 16.7399 14.6391 16.8999 14.1668 16.8999H9.16683ZM12.5002 10.2333C12.0279 10.2333 11.6324 10.0733 11.3135 9.75328C10.9935 9.43439 10.8335 9.03883 10.8335 8.56661C10.8335 8.09439 10.9935 7.69828 11.3135 7.37828C11.6324 7.05939 12.0279 6.89994 12.5002 6.89994H22.5002C22.9724 6.89994 23.3685 7.05939 23.6885 7.37828C24.0074 7.69828 24.1668 8.09439 24.1668 8.56661C24.1668 9.03883 24.0074 9.43439 23.6885 9.75328C23.3685 10.0733 22.9724 10.2333 22.5002 10.2333H12.5002ZM20.8335 16.8999C20.3613 16.8999 19.9657 16.7399 19.6468 16.4199C19.3268 16.1011 19.1668 15.7055 19.1668 15.2333C19.1668 14.7611 19.3268 14.3649 19.6468 14.0449C19.9657 13.7261 20.3613 13.5666 20.8335 13.5666H25.8335C27.2224 13.5666 28.4029 13.0805 29.3752 12.1083C30.3474 11.1361 30.8335 9.9555 30.8335 8.56661C30.8335 7.17772 30.3474 5.99717 29.3752 5.02494C28.4029 4.05272 27.2224 3.56661 25.8335 3.56661H20.8335C20.3613 3.56661 19.9657 3.40661 19.6468 3.08661C19.3268 2.76772 19.1668 2.37217 19.1668 1.89994C19.1668 1.42772 19.3268 1.03161 19.6468 0.71161C19.9657 0.392721 20.3613 0.233276 20.8335 0.233276H25.8335C28.1391 0.233276 30.1046 1.0455 31.7302 2.66994C33.3546 4.2955 34.1668 6.26105 34.1668 8.56661C34.1668 10.8722 33.3546 12.8372 31.7302 14.4616C30.1046 16.0872 28.1391 16.8999 25.8335 16.8999H20.8335Z" fill="#0176C3"/>
</svg>
