<svg width="28" height="14" viewBox="0 0 28 14" fill="none" xmlns="http://www.w3.org/2000/svg">
<path d="M12.6665 13.6663H7.33317C5.48873 13.6663 3.91673 13.0161 2.61717 11.7157C1.31673 10.4161 0.666504 8.84412 0.666504 6.99967C0.666504 5.15523 1.31673 3.58279 2.61717 2.28234C3.91673 0.982785 5.48873 0.333008 7.33317 0.333008H12.6665V2.99967H7.33317C6.22206 2.99967 5.27761 3.38856 4.49984 4.16634C3.72206 4.94412 3.33317 5.88856 3.33317 6.99967C3.33317 8.11079 3.72206 9.05523 4.49984 9.83301C5.27761 10.6108 6.22206 10.9997 7.33317 10.9997H12.6665V13.6663ZM8.6665 8.33301V5.66634H19.3332V8.33301H8.6665ZM15.3332 13.6663V10.9997H20.6665C21.7776 10.9997 22.7221 10.6108 23.4998 9.83301C24.2776 9.05523 24.6665 8.11079 24.6665 6.99967C24.6665 5.88856 24.2776 4.94412 23.4998 4.16634C22.7221 3.38856 21.7776 2.99967 20.6665 2.99967H15.3332V0.333008H20.6665C22.5109 0.333008 24.0834 0.982785 25.3838 2.28234C26.6834 3.58279 27.3332 5.15523 27.3332 6.99967C27.3332 8.84412 26.6834 10.4161 25.3838 11.7157C24.0834 13.0161 22.5109 13.6663 20.6665 13.6663H15.3332Z" fill="#1D242C"/>
</svg>
