<?xml version="1.0" encoding="iso-8859-1"?>
<!-- Generator: Adobe Illustrator 19.0.0, SVG Export Plug-In . SVG Version: 6.00 Build 0)  -->
<svg version="1.1" id="Layer_1" xmlns="http://www.w3.org/2000/svg" xmlns:xlink="http://www.w3.org/1999/xlink" x="0px" y="0px"
	 viewBox="0 0 512.001 512.001" style="enable-background:new 0 0 512.001 512.001;" xml:space="preserve">
<g>
	<path style="fill:rgb(35,34,34);" d="M453.177,405.253H58.825C26.389,405.253,0,378.866,0,346.428V165.573
		c0-32.437,26.389-58.825,58.825-58.825h394.354c32.436,0,58.823,26.389,58.823,58.825v19.71c0,7.562-6.132,13.693-13.693,13.693
		s-13.694-6.132-13.694-13.693v-19.71c0-17.335-14.103-31.438-31.436-31.438H58.825c-17.335,0-31.438,14.103-31.438,31.438v180.856
		c0,17.335,14.103,31.438,31.438,31.438h394.354c17.333,0,31.436-14.103,31.436-31.438v-5.702
		c-44.279-2.825-79.436-39.745-79.436-84.726c0-7.562,6.132-13.693,13.694-13.693s13.693,6.132,13.693,13.693
		c0,31.713,25.8,57.513,57.513,57.513c2.131,0,4.371-0.134,6.661-0.398c3.873-0.445,7.766,0.783,10.68,3.382
		c2.915,2.598,4.583,6.317,4.583,10.222v19.71C512,378.866,485.613,405.253,453.177,405.253z"/>
	<path style="fill:rgb(35,34,34);" d="M333.984,185.523c-7.562,0-13.693-6.132-13.693-13.694v-41.345c0-7.562,6.132-13.693,13.693-13.693
		s13.694,6.132,13.694,13.693v41.345C347.678,179.392,341.547,185.523,333.984,185.523z"/>
	<path style="fill:rgb(35,34,34);" d="M333.984,290.367c-7.562,0-13.693-6.132-13.693-13.694v-41.345c0-7.562,6.132-13.694,13.693-13.694
		s13.694,6.132,13.694,13.694v41.345C347.678,284.235,341.547,290.367,333.984,290.367z"/>
	<path style="fill:rgb(35,34,34);" d="M333.984,395.21c-7.562,0-13.693-6.132-13.693-13.694v-41.345c0-7.562,6.132-13.693,13.693-13.693
		s13.694,6.132,13.694,13.693v41.345C347.678,389.08,341.547,395.21,333.984,395.21z"/>
</g>
<rect x="72.44" y="183.425" style="fill:#CEE8FA;" width="169.799" height="145.151"/>
<path style="fill:rgb(35,34,34);" d="M242.239,342.27H72.44c-7.563,0-13.693-6.132-13.693-13.693V183.425
	c0-7.562,6.131-13.694,13.693-13.694h169.799c7.563,0,13.694,6.132,13.694,13.694v145.151
	C255.933,336.139,249.802,342.27,242.239,342.27z M86.133,314.883h142.412V197.119H86.133V314.883z"/>
<g>
</g>
<g>
</g>
<g>
</g>
<g>
</g>
<g>
</g>
<g>
</g>
<g>
</g>
<g>
</g>
<g>
</g>
<g>
</g>
<g>
</g>
<g>
</g>
<g>
</g>
<g>
</g>
<g>
</g>
</svg>
