<svg width="111" height="109" viewBox="0 0 111 109" fill="none" xmlns="http://www.w3.org/2000/svg">
<path fill-rule="evenodd" clip-rule="evenodd" d="M70.3405 2.49713C70.3405 3.87056 70.565 4.99427 70.8394 4.99427C71.1137 4.99427 71.3382 3.87056 71.3382 2.49713C71.3382 1.12371 71.1137 0 70.8394 0C70.565 0 70.3405 1.12371 70.3405 2.49713ZM66.3495 2.93913C66.3495 3.5694 68.8658 5.1386 69.254 4.75055C69.4316 4.57225 69.0195 3.99741 68.3375 3.47301C66.9786 2.42771 66.3495 2.25891 66.3495 2.93913ZM73.0813 3.99841C72.5834 4.54978 72.3225 5.14759 72.5021 5.32738C72.8663 5.69147 74.8303 4.08081 74.8303 3.41858C74.8303 2.68941 74.0227 2.9571 73.0813 3.99841ZM70.5899 9.56652C68.9292 10.4755 68.345 11.5737 68.345 13.7852C68.345 15.5427 68.6099 16.116 69.9389 17.2352C71.234 18.3265 71.8645 18.5252 73.3063 18.2955C77.2773 17.6632 78.7834 12.8043 75.7896 10.2827C74.1723 8.91976 72.2532 8.65556 70.5899 9.56652ZM35.4222 12.7888C30.6285 14.5328 26.7214 18.5028 25.3765 22.9961C24.8347 24.807 24.8237 24.813 22.4481 24.5848C19.1745 24.2696 15.3991 25.5941 13.5453 27.7077C11.5523 29.9806 10.8269 32.4642 11.0649 36.2049C11.3238 40.2718 13.0454 42.9002 16.6168 44.6822C19.0398 45.8908 19.5761 45.9512 28.658 46.0356C34.6604 46.0911 36.8764 46.2289 34.6714 46.4102C31.1793 46.6964 31.1793 46.6964 31.0471 60.999C30.9149 75.3015 30.9149 75.3015 27.555 75.5063C25.6628 75.6217 23.3326 76.1291 22.2211 76.667C19.5477 77.9615 16.6991 81.0025 15.6954 83.6335C14.9366 85.6232 14.6922 85.829 12.7371 86.1226C9.66558 86.5836 6.32167 88.8964 4.68538 91.6922C3.55244 93.627 3.29453 94.6693 3.28555 97.3492C3.27308 101.196 4.43594 103.852 7.19618 106.278C10.0672 108.802 11.3099 108.951 27.9367 108.781C44.8473 108.608 45.1945 108.545 48.7076 105.028C51.2293 102.503 52.026 100.552 52.2795 96.28C52.5074 92.4244 52.5074 92.4244 58.3063 92.2846C64.1046 92.1442 64.1046 92.1442 64.2553 89.5222C64.406 86.9042 64.409 86.9002 66.0981 86.9002C67.7903 86.9002 67.7903 86.9002 66.8524 89.0228C64.8894 93.4677 63.6946 99.0108 63.6497 103.881C63.6058 108.625 63.6058 108.625 85.8054 108.764C98.0152 108.84 108.512 108.779 109.133 108.628C110.26 108.354 110.26 108.354 110.13 85.0164C110.001 61.6792 110.001 61.6792 108.255 61.5069C107.294 61.412 104.526 61.6028 102.103 61.9309C97.9579 62.4918 97.6341 62.4688 96.6159 61.5413C94.8175 59.9032 93.484 59.4318 90.6514 59.4318C87.5654 59.4318 85.2123 60.7033 83.5605 63.2624C82.7633 64.4979 82.1293 64.859 80.4047 65.0598C76.274 65.5403 73.6924 69.684 74.8473 73.9786C75.3791 75.9553 75.3337 76.1146 73.7458 77.8491C72.8348 78.8445 71.9204 79.8723 71.7139 80.133C71.5074 80.3942 71.3382 73.8202 71.3382 65.5248C71.3382 52.4508 71.438 50.4421 72.0865 50.4421C73.3352 50.4421 72.9561 49.7789 70.0886 46.9436C67.3423 44.2287 67.3423 44.2287 68.9038 43.0051C72.1474 40.464 73.7323 34.2956 72.2671 29.9152C70.3849 24.2866 63.5853 20.7612 57.7326 22.3793C55.8908 22.8882 55.8419 22.8657 55.146 21.1987C54.028 18.5207 50.1493 14.7206 47.2499 13.462C43.8331 11.9797 38.4837 11.6756 35.4222 12.7888ZM45.5547 13.7802C48.3938 14.7486 52.5633 18.3959 53.9562 21.1297C54.9828 23.1444 54.9828 23.1444 52.934 24.8485C51.8065 25.7854 50.8846 26.8711 50.8846 27.2602C50.8846 28.337 51.6768 28.1067 52.5468 26.7773C53.7352 24.9618 58.1357 22.9736 60.9653 22.9736C70.7845 22.9736 75.5372 34.8745 68.4204 41.6422C66.8584 43.1275 66.6653 43.1205 64.1046 41.4834C62.7377 40.6094 61.5375 40.5235 50.261 40.49C37.914 40.4536 37.914 40.4536 37.914 42.701C37.914 44.9484 37.914 44.9484 29.3085 44.9454C24.5758 44.9439 19.8455 44.7042 18.7969 44.413C14.1958 43.134 10.7556 37.4705 11.9349 33.116C13.6261 26.8706 19.9862 23.8062 25.7855 26.4421C28.2963 27.5833 30.8231 30.8681 31.2506 33.5475C31.4188 34.5988 31.752 35.4593 31.9915 35.4593C32.612 35.4593 32.5332 34.5024 31.6752 31.6102C30.9448 29.148 27.771 25.4708 26.3762 25.4708C25.4149 25.4708 26.3493 22.3988 28.1242 19.7219C31.9191 13.9994 39.0604 11.5647 45.5547 13.7802ZM81.4368 17.0589C80.0081 18.4893 81.2817 20.6982 83.3575 20.3901C84.872 20.1648 85.7146 18.7405 85.0042 17.6048C84.3333 16.532 82.2774 16.2174 81.4368 17.0589ZM75.0339 22.663C74.6303 23.7163 75.197 24.4719 76.3913 24.4719C77.1446 24.4719 77.3546 24.1937 77.2349 23.3532C77.0488 22.0477 75.4609 21.5498 75.0339 22.663ZM61.8597 45.8848C61.8597 49.8178 61.8597 49.8178 63.4187 50.1299C64.2763 50.3017 66.1844 50.4421 67.6591 50.4421C70.3405 50.4421 70.3405 50.4421 70.3405 66.3833C70.3405 80.6474 70.2487 82.4858 69.4675 83.8602C68.5945 85.3955 68.5945 85.3955 58.5433 85.399C48.4915 85.4019 48.4915 85.4019 45.6465 83.9037C44.0815 83.0796 42.2427 82.4054 41.5603 82.4054C40.8773 82.4054 39.8975 81.9 39.3827 81.2817C38.5032 80.2264 38.4453 78.9948 38.4294 61.0549C38.4129 41.9518 38.4129 41.9518 50.1363 41.9518C61.8597 41.9518 61.8597 41.9518 61.8597 45.8848ZM63.8552 45.9767C63.8552 47.6218 63.6327 48.9438 63.3563 48.9438C63.0745 48.9438 62.8575 47.5189 62.8575 45.6681C62.8575 43.6114 63.043 42.5072 63.3563 42.701C63.6307 42.8708 63.8552 44.3446 63.8552 45.9767ZM40.9072 43.9495C40.9072 44.2347 42.4038 44.449 44.3993 44.449C46.3948 44.449 47.8914 44.2347 47.8914 43.9495C47.8914 43.6644 46.3948 43.4501 44.3993 43.4501C42.4038 43.4501 40.9072 43.6644 40.9072 43.9495ZM40.9072 46.4467C40.9072 46.7558 43.5677 46.9461 47.8914 46.9461C52.2151 46.9461 54.8756 46.7558 54.8756 46.4467C54.8756 46.1375 52.2151 45.9472 47.8914 45.9472C43.5677 45.9472 40.9072 46.1375 40.9072 46.4467ZM37.914 63.2264C37.914 79.0073 37.914 79.0073 36.2927 77.93C35.4012 77.3372 34.0543 76.619 33.2995 76.3339C31.9276 75.815 31.9276 75.815 31.9276 61.6302C31.9276 47.4455 31.9276 47.4455 34.9208 47.4455C37.914 47.4455 37.914 47.4455 37.914 63.2264ZM40.9072 48.9438C40.9072 49.248 43.1521 49.4432 46.6442 49.4432C50.1363 49.4432 52.3812 49.248 52.3812 48.9438C52.3812 48.6397 50.1363 48.4444 46.6442 48.4444C43.1521 48.4444 40.9072 48.6397 40.9072 48.9438ZM40.9072 51.9404C40.9072 52.256 44.3993 52.4398 50.3857 52.4398C56.3722 52.4398 59.8643 52.256 59.8643 51.9404C59.8643 51.6247 56.3722 51.4409 50.3857 51.4409C44.3993 51.4409 40.9072 51.6247 40.9072 51.9404ZM50.945 58.2881C49.0478 59.2235 47.5467 61.376 47.0852 63.8232C46.3354 67.7937 50.4581 73.3213 54.5094 73.7783C58.9917 74.2842 62.3531 71.3261 62.3566 66.8727C62.3626 59.663 56.7378 55.4314 50.945 58.2881ZM0.825628 58.8469C0.340228 59.3838 0 60.6034 0 61.807C0 63.4237 0.276373 64.0719 1.31452 64.889C2.03738 65.4584 3.1294 65.9243 3.74152 65.9243C4.35363 65.9243 5.44565 65.4584 6.16851 64.889C7.84571 63.5685 8.01083 60.4596 6.48529 58.9323C5.18125 57.6268 1.97253 57.5779 0.825628 58.8469ZM56.1227 59.1806C55.8484 59.2739 54.7908 59.4892 53.7726 59.6595C52.6716 59.8438 51.3067 60.5844 50.4052 61.4869C49.5716 62.3214 48.8891 62.8044 48.8891 62.5602C48.8891 61.9938 51.3945 59.643 52.3812 59.2839C52.7928 59.1341 53.9152 59.0112 54.8756 59.0112C55.8359 59.0112 56.3971 59.0877 56.1227 59.1806ZM94.2673 61.3496C96.2188 62.3974 96.8015 63.4242 95.4501 63.4332C94.9472 63.4367 92.8155 64.1913 90.7138 65.1102C86.8915 66.7808 86.8915 66.7808 85.3569 65.8079C84.1736 65.0578 83.9247 64.6448 84.2689 64.001C85.998 60.7667 90.8066 59.4917 94.2673 61.3496ZM48.723 64.2597C48.5399 64.4425 48.3903 64.2927 48.3903 63.9266C48.3903 63.5605 48.5399 63.4107 48.723 63.5935C48.9056 63.7768 48.9056 64.0764 48.723 64.2597ZM11.1557 65.6746C10.7601 66.7054 11.2964 67.922 12.1455 67.922C13.1442 67.922 14.133 66.5746 13.7902 65.6811C13.4166 64.7052 11.5289 64.7007 11.1557 65.6746ZM84.3413 66.6904C85.8204 67.4561 85.8204 67.4561 82.8556 69.5621C81.2248 70.7203 79.0707 72.326 78.069 73.131C76.5744 74.3312 76.1663 74.466 75.7956 73.8802C74.6517 72.0698 76.0421 68.3855 78.4172 66.9361C80.3917 65.7305 82.3323 65.6501 84.3413 66.6904ZM5.68062 69.1371C5.14533 70.5345 5.88116 71.4964 7.35532 71.3266C8.44735 71.2008 8.7302 70.9111 8.7302 69.9197C8.7302 68.9284 8.44735 68.6387 7.35532 68.5128C6.45885 68.4095 5.87618 68.6267 5.68062 69.1371ZM1.99548 71.9174C1.99548 72.1921 2.66895 72.4169 3.49208 72.4169C4.31522 72.4169 4.98869 72.1921 4.98869 71.9174C4.98869 71.6427 4.31522 71.418 3.49208 71.418C2.66895 71.418 1.99548 71.6427 1.99548 71.9174ZM5.06003 73.8163C4.71182 74.449 4.50678 75.348 4.60506 75.814C4.75322 76.5211 4.88842 76.4707 5.41622 75.5123C5.76443 74.8795 5.96946 73.9806 5.87119 73.5146C5.72302 72.8074 5.58783 72.8578 5.06003 73.8163ZM8.48077 73.7743C8.48077 75.2156 8.98213 76.4123 9.58576 76.4123C9.8806 76.4123 9.94645 75.8484 9.7469 75.0388C9.29592 73.2119 8.48077 72.3979 8.48077 73.7743ZM33.7096 77.8112C34.7876 78.367 36.4429 79.6281 37.3882 80.6134C39.1073 82.4054 39.1073 82.4054 37.5738 82.4054C34.174 82.4054 29.2861 85.77 27.4493 89.3749C26.2959 91.6383 25.6005 95.8899 26.3832 95.8899C26.689 95.8899 26.9409 95.2716 26.9439 94.5165C26.9514 92.4169 29.0696 88.3226 31.0476 86.5836C34.6868 83.3848 40.7396 82.4848 44.6927 84.5549C50.1637 87.4206 53.0018 94.6054 50.7629 99.9218C49.7188 102.402 47.1192 105.234 44.6962 106.532C42.7506 107.574 41.9633 107.634 28.1861 107.781C11.5628 107.958 10.3495 107.777 7.24008 104.659C2.95181 100.36 2.99521 94.7552 7.35183 90.2794C9.05796 88.5264 10.2827 87.9201 13.6066 87.1819C14.8877 86.8977 14.9676 86.9692 14.6752 88.1363C14.4797 88.9164 14.57 89.3974 14.9122 89.3974C15.216 89.3974 15.4649 88.9564 15.4649 88.4175C15.4649 85.0469 19.0398 79.6416 22.4202 77.9011C25.817 76.1516 30.4205 76.1151 33.7096 77.8112ZM60.3631 78.41C60.3631 78.7036 62.1092 78.9094 64.6035 78.9094C67.0979 78.9094 68.8439 78.7036 68.8439 78.41C68.8439 78.1163 67.0979 77.9106 64.6035 77.9106C62.1092 77.9106 60.3631 78.1163 60.3631 78.41ZM53.379 80.9071C53.379 81.2188 56.2889 81.4065 61.1114 81.4065C65.934 81.4065 68.8439 81.2188 68.8439 80.9071C68.8439 80.5955 65.934 80.4077 61.1114 80.4077C56.2889 80.4077 53.379 80.5955 53.379 80.9071ZM56.3722 83.4042C56.3722 83.7104 58.7832 83.9037 62.608 83.9037C66.4329 83.9037 68.8439 83.7104 68.8439 83.4042C68.8439 83.0981 66.4329 82.9048 62.608 82.9048C58.7832 82.9048 56.3722 83.0981 56.3722 83.4042ZM63.3563 89.1477C63.3563 91.3951 63.3563 91.3951 57.7116 91.3951C51.5845 91.3951 52.0824 91.6603 49.9832 87.2748C49.8844 87.069 52.8532 86.9002 56.5802 86.9002C63.3563 86.9002 63.3563 86.9002 63.3563 89.1477Z" fill="white"/>
<path fill-rule="evenodd" clip-rule="evenodd" d="M70.3405 2.49713C70.3405 3.87056 70.565 4.99427 70.8394 4.99427C71.1137 4.99427 71.3382 3.87056 71.3382 2.49713C71.3382 1.12371 71.1137 0 70.8394 0C70.565 0 70.3405 1.12371 70.3405 2.49713ZM66.3495 2.93913C66.3495 3.5694 68.8658 5.1386 69.254 4.75055C69.4316 4.57225 69.0195 3.99741 68.3375 3.47301C66.9786 2.42771 66.3495 2.25891 66.3495 2.93913ZM73.0813 3.99841C72.5834 4.54978 72.3225 5.14759 72.5021 5.32738C72.8663 5.69147 74.8303 4.08081 74.8303 3.41858C74.8303 2.68941 74.0227 2.9571 73.0813 3.99841ZM70.5899 9.56652C68.9292 10.4755 68.345 11.5737 68.345 13.7852C68.345 15.5427 68.6099 16.116 69.9389 17.2352C71.234 18.3265 71.8645 18.5252 73.3063 18.2955C77.2773 17.6632 78.7834 12.8043 75.7896 10.2827C74.1723 8.91976 72.2532 8.65556 70.5899 9.56652ZM35.4222 12.7888C30.6285 14.5328 26.7214 18.5028 25.3765 22.9961C24.8347 24.807 24.8237 24.813 22.4481 24.5848C19.1745 24.2696 15.3991 25.5941 13.5453 27.7077C11.5523 29.9806 10.8269 32.4642 11.0649 36.2049C11.3238 40.2718 13.0454 42.9002 16.6168 44.6822C19.0398 45.8908 19.5761 45.9512 28.658 46.0356C34.6604 46.0911 36.8764 46.2289 34.6714 46.4102C31.1793 46.6964 31.1793 46.6964 31.0471 60.999C30.9149 75.3015 30.9149 75.3015 27.555 75.5063C25.6628 75.6217 23.3326 76.1291 22.2211 76.667C19.5477 77.9615 16.6991 81.0025 15.6954 83.6335C14.9366 85.6232 14.6922 85.829 12.7371 86.1226C9.66558 86.5836 6.32167 88.8964 4.68538 91.6922C3.55244 93.627 3.29453 94.6693 3.28555 97.3492C3.27308 101.196 4.43594 103.852 7.19618 106.278C10.0672 108.802 11.3099 108.951 27.9367 108.781C44.8473 108.608 45.1945 108.545 48.7076 105.028C51.2293 102.503 52.026 100.552 52.2795 96.28C52.5074 92.4244 52.5074 92.4244 58.3063 92.2846C64.1046 92.1442 64.1046 92.1442 64.2553 89.5222C64.4055 86.9127 64.4139 86.9002 66.0727 86.9002C67.7394 86.9002 67.7394 86.9002 66.3386 90.5211C63.6008 97.5994 62.3511 107.883 64.1455 108.572C64.5796 108.739 74.8787 108.875 87.0322 108.875C105.093 108.875 109.233 108.751 109.695 108.193C110.102 107.702 110.224 101.1 110.13 84.5954C110.001 61.6792 110.001 61.6792 105.63 61.7821C103.226 61.8385 100.491 62.0972 99.5518 62.3569C98.1105 62.7555 97.7025 62.673 96.9392 61.8285C95.4461 60.1769 93.489 59.4318 90.6435 59.4318C87.5659 59.4318 85.2103 60.7058 83.5605 63.2624C82.7633 64.4979 82.1293 64.859 80.4047 65.0598C76.274 65.5403 73.6924 69.684 74.8473 73.9786C75.3791 75.9553 75.3337 76.1146 73.7458 77.8491C72.8348 78.8445 71.9204 79.8723 71.7139 80.133C71.5074 80.3942 71.3382 73.8202 71.3382 65.5248C71.3382 52.4508 71.438 50.4421 72.0865 50.4421C73.3352 50.4421 72.9561 49.7789 70.0886 46.9436C67.3423 44.2287 67.3423 44.2287 68.9038 43.0051C72.1474 40.464 73.7323 34.2956 72.2671 29.9152C70.3849 24.2866 63.5853 20.7612 57.7326 22.3793C55.8908 22.8882 55.8419 22.8657 55.146 21.1987C54.028 18.5207 50.1493 14.7206 47.2499 13.462C43.8331 11.9797 38.4837 11.6756 35.4222 12.7888ZM45.5547 13.7802C48.3938 14.7486 52.5633 18.3959 53.9562 21.1297C54.9828 23.1444 54.9828 23.1444 52.934 24.8485C51.8065 25.7854 50.8846 26.8711 50.8846 27.2602C50.8846 28.337 51.6768 28.1067 52.5468 26.7773C53.7352 24.9618 58.1357 22.9736 60.9653 22.9736C70.7845 22.9736 75.5372 34.8745 68.4204 41.6422C66.8584 43.1275 66.6653 43.1205 64.1046 41.4834C62.7377 40.6094 61.5375 40.5235 50.261 40.49C37.914 40.4536 37.914 40.4536 37.914 42.701C37.914 44.9484 37.914 44.9484 29.3085 44.9454C24.5758 44.9439 19.8455 44.7042 18.7969 44.413C14.1958 43.134 10.7556 37.4705 11.9349 33.116C13.6261 26.8706 19.9862 23.8062 25.7855 26.4421C28.2963 27.5833 30.8231 30.8681 31.2506 33.5475C31.4188 34.5988 31.752 35.4593 31.9915 35.4593C32.612 35.4593 32.5332 34.5024 31.6752 31.6102C30.9448 29.148 27.771 25.4708 26.3762 25.4708C25.4149 25.4708 26.3493 22.3988 28.1242 19.7219C31.9191 13.9994 39.0604 11.5647 45.5547 13.7802ZM81.4368 17.0589C80.0081 18.4893 81.2817 20.6982 83.3575 20.3901C84.872 20.1648 85.7146 18.7405 85.0042 17.6048C84.3333 16.532 82.2774 16.2174 81.4368 17.0589ZM75.0339 22.663C74.6303 23.7163 75.197 24.4719 76.3913 24.4719C77.1446 24.4719 77.3546 24.1937 77.2349 23.3532C77.0488 22.0477 75.4609 21.5498 75.0339 22.663ZM61.8597 45.8848C61.8597 49.8178 61.8597 49.8178 63.4187 50.1299C64.2763 50.3017 66.1844 50.4421 67.6591 50.4421C70.3405 50.4421 70.3405 50.4421 70.3405 66.3833C70.3405 80.6474 70.2487 82.4858 69.4675 83.8602C68.5945 85.3955 68.5945 85.3955 58.5433 85.399C48.4915 85.4019 48.4915 85.4019 45.6465 83.9037C44.0815 83.0796 42.2427 82.4054 41.5603 82.4054C40.8773 82.4054 39.8975 81.9 39.3827 81.2817C38.5032 80.2264 38.4453 78.9948 38.4294 61.0549C38.4129 41.9518 38.4129 41.9518 50.1363 41.9518C61.8597 41.9518 61.8597 41.9518 61.8597 45.8848ZM63.8552 45.9767C63.8552 47.6218 63.6327 48.9438 63.3563 48.9438C63.0745 48.9438 62.8575 47.5189 62.8575 45.6681C62.8575 43.6114 63.043 42.5072 63.3563 42.701C63.6307 42.8708 63.8552 44.3446 63.8552 45.9767ZM40.9072 43.9495C40.9072 44.2347 42.4038 44.449 44.3993 44.449C46.3948 44.449 47.8914 44.2347 47.8914 43.9495C47.8914 43.6644 46.3948 43.4501 44.3993 43.4501C42.4038 43.4501 40.9072 43.6644 40.9072 43.9495ZM40.9072 46.4467C40.9072 46.7558 43.5677 46.9461 47.8914 46.9461C52.2151 46.9461 54.8756 46.7558 54.8756 46.4467C54.8756 46.1375 52.2151 45.9472 47.8914 45.9472C43.5677 45.9472 40.9072 46.1375 40.9072 46.4467ZM37.914 63.2264C37.914 79.0073 37.914 79.0073 36.2927 77.93C35.4012 77.3372 34.0543 76.619 33.2995 76.3339C31.9276 75.815 31.9276 75.815 31.9276 61.6302C31.9276 47.4455 31.9276 47.4455 34.9208 47.4455C37.914 47.4455 37.914 47.4455 37.914 63.2264ZM40.9072 48.9438C40.9072 49.248 43.1521 49.4432 46.6442 49.4432C50.1363 49.4432 52.3812 49.248 52.3812 48.9438C52.3812 48.6397 50.1363 48.4444 46.6442 48.4444C43.1521 48.4444 40.9072 48.6397 40.9072 48.9438ZM40.9072 51.9404C40.9072 52.256 44.3993 52.4398 50.3857 52.4398C56.3722 52.4398 59.8643 52.256 59.8643 51.9404C59.8643 51.6247 56.3722 51.4409 50.3857 51.4409C44.3993 51.4409 40.9072 51.6247 40.9072 51.9404ZM50.945 58.2881C49.0623 59.2165 47.5477 61.373 47.0952 63.7693C46.2686 68.1463 50.9899 73.9151 55.3989 73.9151C60.6934 73.9151 63.7295 68.6722 61.7904 62.8773C60.2384 58.2371 55.2921 56.144 50.945 58.2881ZM0.825628 58.8469C0.340228 59.3838 0 60.6034 0 61.807C0 64.428 1.88273 66.1655 4.2324 65.7121C7.33587 65.1132 8.63492 61.0444 6.39101 58.9518C4.98669 57.6418 1.96604 57.5849 0.825628 58.8469ZM55.6239 59.2625C52.2889 59.9776 50.3154 61.1078 49.3606 62.8488C48.6587 64.1289 48.4551 64.3022 48.6811 63.4272C49.0657 61.9379 50.7444 59.9831 52.1318 59.4088C52.6805 59.1816 53.9152 59.0073 54.8756 59.0217C55.8359 59.0362 56.1726 59.1446 55.6239 59.2625ZM94.2673 61.3496C96.0677 62.3165 96.8264 63.4212 95.6995 63.4357C95.3338 63.4402 93.1957 64.1908 90.9483 65.1033C86.8625 66.7624 86.8625 66.7623 85.3425 65.799C84.1711 65.0563 83.9252 64.6443 84.2689 64.001C85.998 60.7667 90.8066 59.4917 94.2673 61.3496ZM11.3079 65.2586C10.6758 65.8909 10.9781 67.3167 11.8122 67.6373C12.8718 68.0444 14.2033 66.7579 13.8027 65.7136C13.4994 64.9225 11.9294 64.6358 11.3079 65.2586ZM84.3936 66.7174C85.9252 67.5105 85.9252 67.5105 84.2734 68.5158C82.3383 69.694 77.842 73.3373 76.9994 74.4096C76.5025 75.0418 76.3184 74.9425 75.7752 73.7488C74.3659 70.6529 77.7736 65.9243 81.4144 65.9243C82.2106 65.9243 83.551 66.2814 84.3936 66.7174ZM5.68062 69.1371C5.14533 70.5345 5.88116 71.4964 7.35532 71.3266C8.44735 71.2008 8.7302 70.9111 8.7302 69.9197C8.7302 68.9284 8.44735 68.6387 7.35532 68.5128C6.45885 68.4095 5.87618 68.6267 5.68062 69.1371ZM1.99548 71.9174C1.99548 72.1921 2.66895 72.4169 3.49208 72.4169C4.31522 72.4169 4.98869 72.1921 4.98869 71.9174C4.98869 71.6427 4.31522 71.418 3.49208 71.418C2.66895 71.418 1.99548 71.6427 1.99548 71.9174ZM5.06003 73.8163C4.71182 74.449 4.50678 75.348 4.60506 75.814C4.75322 76.5211 4.88842 76.4707 5.41622 75.5123C5.76443 74.8795 5.96946 73.9806 5.87119 73.5146C5.72302 72.8074 5.58783 72.8578 5.06003 73.8163ZM8.48077 73.7743C8.48077 75.2156 8.98213 76.4123 9.58576 76.4123C9.8806 76.4123 9.94645 75.8484 9.7469 75.0388C9.29592 73.2119 8.48077 72.3979 8.48077 73.7743ZM33.7096 77.8112C34.7876 78.367 36.4429 79.6281 37.3882 80.6134C39.1073 82.4054 39.1073 82.4054 37.5738 82.4054C34.174 82.4054 29.2861 85.77 27.4493 89.3749C26.2959 91.6383 25.6005 95.8899 26.3832 95.8899C26.689 95.8899 26.9409 95.2716 26.9439 94.5165C26.9514 92.4169 29.0696 88.3226 31.0476 86.5836C34.6868 83.3848 40.7396 82.4848 44.6927 84.5549C50.1637 87.4206 53.0018 94.6054 50.7629 99.9218C49.7188 102.402 47.1192 105.234 44.6962 106.532C42.7506 107.574 41.9633 107.634 28.1861 107.781C11.5628 107.958 10.3495 107.777 7.24008 104.659C2.95181 100.36 2.99521 94.7552 7.35183 90.2794C9.05796 88.5264 10.2827 87.9201 13.6066 87.1819C14.8877 86.8977 14.9676 86.9692 14.6752 88.1363C14.4797 88.9164 14.57 89.3974 14.9122 89.3974C15.216 89.3974 15.4649 88.9564 15.4649 88.4175C15.4649 85.0469 19.0398 79.6416 22.4202 77.9011C25.817 76.1516 30.4205 76.1151 33.7096 77.8112ZM60.3631 78.41C60.3631 78.7036 62.1092 78.9094 64.6035 78.9094C67.0979 78.9094 68.8439 78.7036 68.8439 78.41C68.8439 78.1163 67.0979 77.9106 64.6035 77.9106C62.1092 77.9106 60.3631 78.1163 60.3631 78.41ZM53.379 80.9071C53.379 81.2188 56.2889 81.4065 61.1114 81.4065C65.934 81.4065 68.8439 81.2188 68.8439 80.9071C68.8439 80.5955 65.934 80.4077 61.1114 80.4077C56.2889 80.4077 53.379 80.5955 53.379 80.9071ZM56.3722 83.4042C56.3722 83.7104 58.7832 83.9037 62.608 83.9037C66.4329 83.9037 68.8439 83.7104 68.8439 83.4042C68.8439 83.0981 66.4329 82.9048 62.608 82.9048C58.7832 82.9048 56.3722 83.0981 56.3722 83.4042ZM63.3563 89.1477C63.3563 91.3951 63.3563 91.3951 57.7116 91.3951C51.5845 91.3951 52.0824 91.6603 49.9832 87.2748C49.8844 87.069 52.8532 86.9002 56.5802 86.9002C63.3563 86.9002 63.3563 86.9002 63.3563 89.1477Z" fill="#706868"/>
<path fill-rule="evenodd" clip-rule="evenodd" d="M70.3405 2.49713C70.3405 3.87056 70.565 4.99427 70.8394 4.99427C71.1137 4.99427 71.3382 3.87056 71.3382 2.49713C71.3382 1.12371 71.1137 0 70.8394 0C70.565 0 70.3405 1.12371 70.3405 2.49713ZM66.3495 2.93913C66.3495 3.5694 68.8658 5.1386 69.254 4.75055C69.4316 4.57225 69.0195 3.99741 68.3375 3.47301C66.9786 2.42771 66.3495 2.25891 66.3495 2.93913ZM73.0813 3.99841C72.5834 4.54978 72.3225 5.14759 72.5021 5.32738C72.8663 5.69147 74.8303 4.08081 74.8303 3.41858C74.8303 2.68941 74.0227 2.9571 73.0813 3.99841ZM76.8258 11.7365C76.8258 11.8739 76.938 11.9862 77.0752 11.9862C77.2124 11.9862 77.3247 11.8739 77.3247 11.7365C77.3247 11.5992 77.2124 11.4868 77.0752 11.4868C76.938 11.4868 76.8258 11.5992 76.8258 11.7365ZM35.4222 12.7888C30.6285 14.5328 26.7214 18.5028 25.3765 22.9961C24.8347 24.807 24.8237 24.813 22.4481 24.5848C19.1745 24.2696 15.3991 25.5941 13.5453 27.7077C11.5523 29.9806 10.8269 32.4642 11.0649 36.2049C11.3238 40.2718 13.0454 42.9002 16.6168 44.6822C19.0398 45.8908 19.5761 45.9512 28.658 46.0356C34.6604 46.0911 36.8764 46.2289 34.6714 46.4102C31.1793 46.6964 31.1793 46.6964 31.0471 60.999C30.9149 75.3015 30.9149 75.3015 27.555 75.5063C25.6628 75.6217 23.3326 76.1291 22.2211 76.667C19.5477 77.9615 16.6991 81.0025 15.6954 83.6335C14.9366 85.6232 14.6922 85.829 12.7371 86.1226C9.66558 86.5836 6.32167 88.8964 4.68538 91.6922C3.55244 93.627 3.29453 94.6693 3.28555 97.3492C3.27308 101.196 4.43594 103.852 7.19618 106.278C10.0672 108.802 11.3099 108.951 27.9367 108.781C44.8473 108.608 45.1945 108.545 48.7076 105.028C51.2293 102.503 52.026 100.552 52.2795 96.28C52.5074 92.4244 52.5074 92.4244 58.3063 92.2846C64.1046 92.1442 64.1046 92.1442 64.2533 89.5841C64.402 87.0246 64.402 87.0246 67.8701 86.6825C71.3382 86.3404 71.3382 86.3404 71.3382 67.9979C71.3382 49.6555 71.3382 49.6555 68.8743 47.2258C66.4099 44.7961 66.4099 44.7961 68.4119 43.3442C73.2903 39.8063 74.3005 31.7261 70.5041 26.6055C67.916 23.115 62.0693 21.1802 57.7326 22.3793C55.8908 22.8882 55.8419 22.8657 55.146 21.1987C54.028 18.5207 50.1493 14.7206 47.2499 13.462C43.8331 11.9797 38.4837 11.6756 35.4222 12.7888ZM45.5547 13.7802C48.3938 14.7486 52.5633 18.3959 53.9562 21.1297C54.9828 23.1444 54.9828 23.1444 52.934 24.8485C51.8065 25.7854 50.8846 26.8711 50.8846 27.2602C50.8846 28.337 51.6768 28.1067 52.5468 26.7773C52.9754 26.122 54.5049 24.9983 55.9451 24.2801C63.491 20.5154 71.8371 25.6041 71.8371 33.97C71.8371 36.8422 70.9287 38.9658 68.6902 41.3276C66.9193 43.1959 66.5596 43.2718 65.1418 42.0767C64.1051 41.2032 64.1051 41.2032 65.058 42.3294C65.5818 42.9492 65.8851 43.582 65.7319 43.7358C65.5783 43.8896 64.842 43.2139 64.0957 42.2345C62.7392 40.4536 62.7392 40.4536 50.3264 40.4536C37.914 40.4536 37.914 40.4536 37.914 42.701C37.914 44.9484 37.914 44.9484 29.3085 44.9454C24.5758 44.9439 19.8455 44.7042 18.7969 44.413C14.1958 43.134 10.7556 37.4705 11.9349 33.116C13.6261 26.8706 19.9862 23.8062 25.7855 26.4421C28.2963 27.5833 30.8231 30.8681 31.2506 33.5475C31.4188 34.5988 31.752 35.4593 31.9915 35.4593C32.612 35.4593 32.5332 34.5024 31.6752 31.6102C30.9448 29.148 27.771 25.4708 26.3762 25.4708C25.4149 25.4708 26.3493 22.3988 28.1242 19.7219C31.9191 13.9994 39.0604 11.5647 45.5547 13.7802ZM76.8258 13.7342C76.8258 13.8716 76.938 13.9839 77.0752 13.9839C77.2124 13.9839 77.3247 13.8716 77.3247 13.7342C77.3247 13.5969 77.2124 13.4845 77.0752 13.4845C76.938 13.4845 76.8258 13.5969 76.8258 13.7342ZM71.3382 18.2291C71.3382 18.3664 71.4505 18.4788 71.5877 18.4788C71.7249 18.4788 71.8371 18.3664 71.8371 18.2291C71.8371 18.0917 71.7249 17.9794 71.5877 17.9794C71.4505 17.9794 71.3382 18.0917 71.3382 18.2291ZM74.8303 22.9736C74.8303 23.3397 74.98 23.4895 75.1631 23.3067C75.3457 23.1235 75.3457 22.8238 75.1631 22.6405C74.98 22.4577 74.8303 22.6075 74.8303 22.9736ZM76.8258 23.2233C76.8258 23.3607 76.938 23.4731 77.0752 23.4731C77.2124 23.4731 77.3247 23.3607 77.3247 23.2233C77.3247 23.086 77.2124 22.9736 77.0752 22.9736C76.938 22.9736 76.8258 23.086 76.8258 23.2233ZM61.8597 45.9472C61.8597 49.9427 61.8597 49.9427 66.1001 49.9427C70.3405 49.9427 70.3405 49.9427 70.3405 67.6723C70.3405 85.4019 70.3405 85.4019 59.4163 85.4019C48.4915 85.4019 48.4915 85.4019 45.6465 83.9037C44.0815 83.0796 42.2427 82.4054 41.5603 82.4054C40.8773 82.4054 39.8975 81.9 39.3827 81.2817C38.5032 80.2264 38.4453 78.9948 38.4294 61.0549C38.4129 41.9518 38.4129 41.9518 50.1363 41.9518C61.8597 41.9518 61.8597 41.9518 61.8597 45.9472ZM66.3495 45.6975C69.5633 48.9438 69.5633 48.9438 66.2104 48.9438C62.8575 48.9438 62.8575 48.9438 62.8575 45.6975C62.8575 43.9121 62.9198 42.4513 62.9967 42.4513C63.073 42.4513 64.5821 43.9121 66.3495 45.6975ZM40.9072 43.9495C40.9072 44.2347 42.4038 44.449 44.3993 44.449C46.3948 44.449 47.8914 44.2347 47.8914 43.9495C47.8914 43.6644 46.3948 43.4501 44.3993 43.4501C42.4038 43.4501 40.9072 43.6644 40.9072 43.9495ZM69.8416 47.1958C71.3317 48.7066 72.6637 49.9427 72.8009 49.9427C72.9381 49.9427 71.8306 48.7066 70.3405 47.1958C68.8504 45.685 67.5184 44.449 67.3812 44.449C67.244 44.449 68.3515 45.685 69.8416 47.1958ZM40.9072 46.4467C40.9072 46.7558 43.5677 46.9461 47.8914 46.9461C52.2151 46.9461 54.8756 46.7558 54.8756 46.4467C54.8756 46.1375 52.2151 45.9472 47.8914 45.9472C43.5677 45.9472 40.9072 46.1375 40.9072 46.4467ZM37.914 63.2264C37.914 79.0073 37.914 79.0073 36.2927 77.93C35.4012 77.3372 34.0543 76.619 33.2995 76.3339C31.9276 75.815 31.9276 75.815 31.9276 61.6302C31.9276 47.4455 31.9276 47.4455 34.9208 47.4455C37.914 47.4455 37.914 47.4455 37.914 63.2264ZM40.9072 48.9438C40.9072 49.248 43.1521 49.4432 46.6442 49.4432C50.1363 49.4432 52.3812 49.248 52.3812 48.9438C52.3812 48.6397 50.1363 48.4444 46.6442 48.4444C43.1521 48.4444 40.9072 48.6397 40.9072 48.9438ZM40.9072 51.9404C40.9072 52.256 44.3993 52.4398 50.3857 52.4398C56.3722 52.4398 59.8643 52.256 59.8643 51.9404C59.8643 51.6247 56.3722 51.4409 50.3857 51.4409C44.3993 51.4409 40.9072 51.6247 40.9072 51.9404ZM50.8766 58.345C48.9715 59.3434 46.8937 62.7764 46.8937 64.9255C46.8937 65.6331 47.399 67.2148 48.0161 68.4404C50.6092 73.588 57.7665 73.7883 60.8939 68.8005C62.3416 66.4922 62.0488 61.9803 60.3317 60.1405C57.7151 57.3362 54.1083 56.6515 50.8766 58.345ZM1.49661 58.1832C1.49661 58.3205 1.60885 58.4329 1.74604 58.4329C1.88323 58.4329 1.99548 58.3205 1.99548 58.1832C1.99548 58.0459 1.88323 57.9335 1.74604 57.9335C1.60885 57.9335 1.49661 58.0459 1.49661 58.1832ZM57.9127 60.071C60.9403 62.1137 61.6901 65.3075 59.8513 68.3266C57.8079 71.6822 53.3291 72.1986 50.2391 69.4343C48.8033 68.1503 48.6397 67.7207 48.6397 65.2341C48.6397 63.1645 48.8782 62.2385 49.5831 61.5723C50.2256 60.965 50.3987 60.9196 50.1268 61.4295C49.8899 61.873 49.9123 62.0088 50.1812 61.7626C50.4306 61.5334 50.6352 61.0909 50.6352 60.7782C50.6352 59.9637 52.8666 58.9483 54.677 58.9398C55.5281 58.9358 56.9843 59.4448 57.9127 60.071ZM0 59.6815C0 59.8188 0.112245 59.9312 0.249434 59.9312C0.386623 59.9312 0.498869 59.8188 0.498869 59.6815C0.498869 59.5441 0.386623 59.4318 0.249434 59.4318C0.112245 59.4318 0 59.5441 0 59.6815ZM86.2534 60.574C85.321 61.2022 84.1093 62.4123 83.5605 63.2624C82.7633 64.4979 82.1293 64.859 80.4047 65.0598C74.5365 65.7425 72.5001 73.3228 77.0997 77.3657C78.8562 78.9094 78.8562 78.9094 90.2893 78.9094C102.652 78.9094 103.828 78.7046 105.049 76.3399C106.852 72.8499 105.184 68.798 101.545 67.8231C99.7708 67.3482 99.2524 66.9586 99.027 65.9303C98.571 63.8537 96.9177 61.4984 95.1637 60.4281C92.8145 58.9938 88.4928 59.0647 86.2534 60.574ZM94.2942 61.3556C96.3021 62.4238 98.2772 65.0688 98.2772 66.6899C98.2772 67.3307 97.7454 68.1562 97.03 68.6252C95.1757 69.8418 95.5189 70.5655 97.4041 69.4148C99.681 68.0254 101.462 68.1607 103.371 69.8688C105.555 71.8215 105.658 74.7432 103.618 76.7868C102.246 78.1603 102.246 78.1603 90.8196 78.1603C77.827 78.1603 77.3486 78.0289 75.9039 74.061C75.2474 72.2595 75.2454 71.7821 75.8849 70.1C77.2927 66.3968 81.4029 64.9155 84.695 66.9252C85.5934 67.4735 86.435 67.922 86.5657 67.922C86.9648 67.922 86.8291 66.4247 86.429 66.4128C86.2235 66.4068 85.5375 66.0032 84.905 65.5158C83.7556 64.6303 83.7556 64.6303 84.8626 63.2209C87.0142 60.4826 91.1254 59.6695 94.2942 61.3556ZM6.98416 61.6792C6.98416 61.8165 7.09641 61.9289 7.2336 61.9289C7.37079 61.9289 7.48303 61.8165 7.48303 61.6792C7.48303 61.5418 7.37079 61.4295 7.2336 61.4295C7.09641 61.4295 6.98416 61.5418 6.98416 61.6792ZM53.4498 62.7015C52.2031 64.2882 52.0674 65.1527 53.1295 64.7447C53.7272 64.5154 53.8778 64.915 53.8778 66.7309C53.8778 69.5222 55.0447 69.5462 55.2797 66.7599C55.3804 65.5682 55.6862 64.9255 56.1527 64.9255C57.1424 64.9255 57.0302 64.415 55.6768 62.7589C54.5184 61.3411 54.5184 61.3411 53.4498 62.7015ZM109.502 61.9289C109.671 62.2036 109.922 62.4283 110.059 62.4283C110.197 62.4283 110.17 62.2036 110.001 61.9289C109.831 61.6542 109.58 61.4295 109.443 61.4295C109.306 61.4295 109.332 61.6542 109.502 61.9289ZM100.273 62.1786C100.273 62.316 100.385 62.4283 100.522 62.4283C100.659 62.4283 100.771 62.316 100.771 62.1786C100.771 62.0413 100.659 61.9289 100.522 61.9289C100.385 61.9289 100.273 62.0413 100.273 62.1786ZM8.39347 69.7569C8.60599 70.8022 8.7317 70.9281 8.87687 70.2414C8.98513 69.7314 8.85542 69.0962 8.58952 68.83C8.27723 68.5173 8.20739 68.8455 8.39347 69.7569ZM83.81 68.6712C83.81 68.8085 83.9222 68.9209 84.0594 68.9209C84.1966 68.9209 84.3088 68.8085 84.3088 68.6712C84.3088 68.5338 84.1966 68.4214 84.0594 68.4214C83.9222 68.4214 83.81 68.5338 83.81 68.6712ZM5.56638 69.9197C5.56638 70.6064 5.67962 70.8876 5.81781 70.544C5.95649 70.2009 5.95649 69.639 5.81781 69.2954C5.67962 68.9523 5.56638 69.233 5.56638 69.9197ZM82.3134 69.67C82.3134 69.8074 82.4256 69.9197 82.5628 69.9197C82.7 69.9197 82.8122 69.8074 82.8122 69.67C82.8122 69.5327 82.7 69.4203 82.5628 69.4203C82.4256 69.4203 82.3134 69.5327 82.3134 69.67ZM1.99548 71.9174C1.99548 72.1921 2.66895 72.4169 3.49208 72.4169C4.31522 72.4169 4.98869 72.1921 4.98869 71.9174C4.98869 71.6427 4.31522 71.418 3.49208 71.418C2.66895 71.418 1.99548 71.6427 1.99548 71.9174ZM59.8643 72.1671C59.8643 72.3045 59.9765 72.4169 60.1137 72.4169C60.2509 72.4169 60.3631 72.3045 60.3631 72.1671C60.3631 72.0298 60.2509 71.9174 60.1137 71.9174C59.9765 71.9174 59.8643 72.0298 59.8643 72.1671ZM5.06003 73.8163C4.71182 74.449 4.50678 75.348 4.60506 75.814C4.75322 76.5211 4.88842 76.4707 5.41622 75.5123C5.76443 74.8795 5.96946 73.9806 5.87119 73.5146C5.72302 72.8074 5.58783 72.8578 5.06003 73.8163ZM8.48077 73.7743C8.48077 75.2156 8.98213 76.4123 9.58576 76.4123C9.8806 76.4123 9.94645 75.8484 9.7469 75.0388C9.29592 73.2119 8.48077 72.3979 8.48077 73.7743ZM77.3247 73.6654C77.3247 73.8028 77.4369 73.9151 77.5741 73.9151C77.7113 73.9151 77.8235 73.8028 77.8235 73.6654C77.8235 73.5281 77.7113 73.4157 77.5741 73.4157C77.4369 73.4157 77.3247 73.5281 77.3247 73.6654ZM33.7096 77.8112C34.7876 78.367 36.4429 79.6281 37.3882 80.6134C39.1073 82.4054 39.1073 82.4054 37.5738 82.4054C34.174 82.4054 29.2861 85.77 27.4493 89.3749C26.2959 91.6383 25.6005 95.8899 26.3832 95.8899C26.689 95.8899 26.9409 95.2716 26.9439 94.5165C26.9514 92.4169 29.0696 88.3226 31.0476 86.5836C34.6868 83.3848 40.7396 82.4848 44.6927 84.5549C50.1637 87.4206 53.0018 94.6054 50.7629 99.9218C49.7188 102.402 47.1192 105.234 44.6962 106.532C42.7506 107.574 41.9633 107.634 28.1861 107.781C11.5628 107.958 10.3495 107.777 7.24008 104.659C2.95181 100.36 2.99521 94.7552 7.35183 90.2794C9.05796 88.5264 10.2827 87.9201 13.6066 87.1819C14.8877 86.8977 14.9676 86.9692 14.6752 88.1363C14.4797 88.9164 14.57 89.3974 14.9122 89.3974C15.216 89.3974 15.4649 88.9564 15.4649 88.4175C15.4649 85.0469 19.0398 79.6416 22.4202 77.9011C25.817 76.1516 30.4205 76.1151 33.7096 77.8112ZM60.3631 78.41C60.3631 78.7036 62.1092 78.9094 64.6035 78.9094C67.0979 78.9094 68.8439 78.7036 68.8439 78.41C68.8439 78.1163 67.0979 77.9106 64.6035 77.9106C62.1092 77.9106 60.3631 78.1163 60.3631 78.41ZM72.336 79.1591C72.336 79.2965 72.4482 79.4088 72.5854 79.4088C72.7226 79.4088 72.8348 79.2965 72.8348 79.1591C72.8348 79.0218 72.7226 78.9094 72.5854 78.9094C72.4482 78.9094 72.336 79.0218 72.336 79.1591ZM53.379 80.9071C53.379 81.2188 56.2889 81.4065 61.1114 81.4065C65.934 81.4065 68.8439 81.2188 68.8439 80.9071C68.8439 80.5955 65.934 80.4077 61.1114 80.4077C56.2889 80.4077 53.379 80.5955 53.379 80.9071ZM56.3722 83.4042C56.3722 83.7104 58.7832 83.9037 62.608 83.9037C66.4329 83.9037 68.8439 83.7104 68.8439 83.4042C68.8439 83.0981 66.4329 82.9048 62.608 82.9048C58.7832 82.9048 56.3722 83.0981 56.3722 83.4042ZM69.3428 83.654C69.3428 83.7913 69.455 83.9037 69.5922 83.9037C69.7294 83.9037 69.8416 83.7913 69.8416 83.654C69.8416 83.5166 69.7294 83.4042 69.5922 83.4042C69.455 83.4042 69.3428 83.5166 69.3428 83.654ZM63.3563 89.1477C63.3563 91.3951 63.3563 91.3951 57.7116 91.3951C51.5845 91.3951 52.0824 91.6603 49.9832 87.2748C49.8844 87.069 52.8532 86.9002 56.5802 86.9002C63.3563 86.9002 63.3563 86.9002 63.3563 89.1477ZM63.3563 101.134C63.3563 101.271 63.4686 101.384 63.6058 101.384C63.743 101.384 63.8552 101.271 63.8552 101.134C63.8552 100.997 63.743 100.884 63.6058 100.884C63.4686 100.884 63.3563 100.997 63.3563 101.134ZM63.3563 106.628C63.3563 106.765 63.4686 106.877 63.6058 106.877C63.743 106.877 63.8552 106.765 63.8552 106.628C63.8552 106.49 63.743 106.378 63.6058 106.378C63.4686 106.378 63.3563 106.49 63.3563 106.628Z" fill="#B0D1FF"/>
<path fill-rule="evenodd" clip-rule="evenodd" d="M70.3405 2.49713C70.3405 3.87056 70.565 4.99427 70.8394 4.99427C71.1137 4.99427 71.3382 3.87056 71.3382 2.49713C71.3382 1.12371 71.1137 0 70.8394 0C70.565 0 70.3405 1.12371 70.3405 2.49713ZM66.3495 2.93913C66.3495 3.5694 68.8658 5.1386 69.254 4.75055C69.4316 4.57225 69.0195 3.99741 68.3375 3.47301C66.9786 2.42771 66.3495 2.25891 66.3495 2.93913ZM73.0813 3.99841C72.5834 4.54978 72.3225 5.14759 72.5021 5.32738C72.8663 5.69147 74.8303 4.08081 74.8303 3.41858C74.8303 2.68941 74.0226 2.9571 73.0813 3.99841ZM76.8258 11.7365C76.8258 11.8739 76.938 11.9862 77.0752 11.9862C77.2124 11.9862 77.3247 11.8739 77.3247 11.7365C77.3247 11.5992 77.2124 11.4868 77.0752 11.4868C76.938 11.4868 76.8258 11.5992 76.8258 11.7365ZM35.4222 12.7888C30.6285 14.5328 26.7214 18.5028 25.3765 22.9961C24.8347 24.807 24.8237 24.813 22.4481 24.5848C19.1745 24.2696 15.3991 25.5941 13.5453 27.7077C11.5523 29.9806 10.8269 32.4642 11.0649 36.2049C11.3238 40.2718 13.0454 42.9002 16.6168 44.6822C19.0398 45.8908 19.5761 45.9512 28.658 46.0356C34.6604 46.0911 36.8764 46.2289 34.6714 46.4102C31.1793 46.6964 31.1793 46.6964 31.0471 60.999C30.9149 75.3015 30.9149 75.3015 27.555 75.5063C25.6628 75.6217 23.3326 76.1291 22.2211 76.667C19.5477 77.9615 16.6991 81.0025 15.6954 83.6335C14.9366 85.6232 14.6922 85.829 12.7371 86.1226C9.66558 86.5836 6.32167 88.8964 4.68538 91.6922C3.55244 93.627 3.29453 94.6693 3.28555 97.3492C3.27308 101.196 4.43594 103.852 7.19618 106.278C10.0672 108.802 11.3099 108.951 27.9367 108.781C44.8473 108.608 45.1945 108.545 48.7076 105.028C51.2293 102.503 52.026 100.552 52.2794 96.28C52.5074 92.4244 52.5074 92.4244 58.3063 92.2846C64.1046 92.1442 64.1046 92.1442 64.2528 89.5981C64.401 87.0516 64.401 87.0516 67.7449 86.6016C71.0888 86.1511 71.0888 86.1511 71.2195 67.909C71.3502 49.6675 71.3502 49.6675 68.8803 47.2318C66.4099 44.7961 66.4099 44.7961 68.4119 43.3442C73.2903 39.8063 74.3005 31.7261 70.5041 26.6055C67.916 23.115 62.0693 21.1802 57.7326 22.3793C55.8908 22.8882 55.8419 22.8657 55.146 21.1987C54.028 18.5207 50.1493 14.7206 47.2499 13.462C43.8331 11.9797 38.4837 11.6756 35.4222 12.7888ZM45.5547 13.7802C48.3938 14.7486 52.5633 18.3959 53.9561 21.1297C54.9828 23.1444 54.9828 23.1444 52.934 24.8485C51.8065 25.7854 50.8846 26.8711 50.8846 27.2602C50.8846 28.337 51.6768 28.1067 52.5468 26.7773C52.9754 26.122 54.5049 24.9983 55.9451 24.2801C63.491 20.5154 71.8371 25.6041 71.8371 33.97C71.8371 36.8422 70.9287 38.9658 68.6902 41.3276C66.9198 43.1949 66.5606 43.2713 65.1418 42.0802C64.389 41.4484 64.4364 41.5853 65.3139 42.5796C65.9794 43.3333 66.2712 43.9495 65.9629 43.9495C65.6546 43.9495 64.8031 43.1629 64.0707 42.2015C62.7392 40.4536 62.7392 40.4536 50.3264 40.4536C37.914 40.4536 37.914 40.4536 37.914 42.701C37.914 44.9484 37.914 44.9484 29.3085 44.9454C24.5758 44.9439 19.8455 44.7042 18.7969 44.413C14.1958 43.134 10.7556 37.4705 11.9349 33.116C13.6261 26.8706 19.9862 23.8062 25.7855 26.4421C28.2963 27.5833 30.8231 30.8681 31.2506 33.5475C31.4188 34.5988 31.752 35.4593 31.9915 35.4593C32.612 35.4593 32.5332 34.5024 31.6752 31.6102C30.9448 29.148 27.771 25.4708 26.3762 25.4708C25.4149 25.4708 26.3493 22.3988 28.1242 19.7219C31.9191 13.9994 39.0604 11.5647 45.5547 13.7802ZM71.3382 18.2291C71.3382 18.3664 71.4505 18.4788 71.5877 18.4788C71.7249 18.4788 71.8371 18.3664 71.8371 18.2291C71.8371 18.0917 71.7249 17.9794 71.5877 17.9794C71.4505 17.9794 71.3382 18.0917 71.3382 18.2291ZM74.8303 22.9736C74.8303 23.3397 74.98 23.4895 75.1631 23.3067C75.3456 23.1235 75.3456 22.8238 75.1631 22.6405C74.98 22.4577 74.8303 22.6075 74.8303 22.9736ZM61.8597 45.9472C61.8597 49.9427 61.8597 49.9427 66.1001 49.9427C70.3405 49.9427 70.3405 49.9427 70.341 67.7972C70.3415 85.6517 70.3415 85.6517 59.3499 85.4918C48.3583 85.332 48.3583 85.332 45.5796 83.8687C44.0516 83.0636 42.2427 82.4054 41.5603 82.4054C40.8773 82.4054 39.8975 81.9 39.3827 81.2817C38.5032 80.2264 38.4453 78.9948 38.4294 61.0549C38.4129 41.9518 38.4129 41.9518 50.1363 41.9518C61.8597 41.9518 61.8597 41.9518 61.8597 45.9472ZM68.0123 49.3548C66.9846 49.4432 65.4047 49.3768 64.5007 49.207C62.8575 48.8984 62.8575 48.8984 62.8575 45.5637C62.8575 42.2285 62.8575 42.2285 66.369 45.711C69.8805 49.1935 69.8805 49.1935 68.0123 49.3548ZM40.9072 43.9495C40.9072 44.2347 42.4038 44.449 44.3993 44.449C46.3948 44.449 47.8914 44.2347 47.8914 43.9495C47.8914 43.6644 46.3948 43.4501 44.3993 43.4501C42.4038 43.4501 40.9072 43.6644 40.9072 43.9495ZM69.8416 47.1958C71.3317 48.7066 72.6637 49.9427 72.8009 49.9427C72.9381 49.9427 71.8306 48.7066 70.3405 47.1958C68.8504 45.685 67.5184 44.449 67.3812 44.449C67.244 44.449 68.3515 45.685 69.8416 47.1958ZM40.9072 46.4467C40.9072 46.7558 43.5677 46.9461 47.8914 46.9461C52.2151 46.9461 54.8756 46.7558 54.8756 46.4467C54.8756 46.1375 52.2151 45.9472 47.8914 45.9472C43.5677 45.9472 40.9072 46.1375 40.9072 46.4467ZM37.914 63.2264C37.914 79.0073 37.914 79.0073 36.2927 77.93C35.4012 77.3372 34.0543 76.619 33.2995 76.3339C31.9276 75.815 31.9276 75.815 31.9276 61.6302C31.9276 47.4455 31.9276 47.4455 34.9208 47.4455C37.914 47.4455 37.914 47.4455 37.914 63.2264ZM40.9072 48.9438C40.9072 49.248 43.1521 49.4432 46.6442 49.4432C50.1363 49.4432 52.3812 49.248 52.3812 48.9438C52.3812 48.6397 50.1363 48.4444 46.6442 48.4444C43.1521 48.4444 40.9072 48.6397 40.9072 48.9438ZM40.9072 51.9404C40.9072 52.256 44.3993 52.4398 50.3857 52.4398C56.3722 52.4398 59.8643 52.256 59.8643 51.9404C59.8643 51.6247 56.3722 51.4409 50.3857 51.4409C44.3993 51.4409 40.9072 51.6247 40.9072 51.9404ZM50.8766 58.345C48.9715 59.3434 46.8862 62.7879 46.9046 64.9065C46.9106 65.6037 47.3426 67.1159 47.865 68.2671C50.3074 73.6534 58.2065 73.7244 61.0141 68.386C62.2907 65.9583 61.948 61.8725 60.3217 60.1295C57.7156 57.3367 54.1033 56.654 50.8766 58.345ZM1.49661 58.1832C1.49661 58.3205 1.60885 58.4329 1.74604 58.4329C1.88323 58.4329 1.99548 58.3205 1.99548 58.1832C1.99548 58.0459 1.88323 57.9335 1.74604 57.9335C1.60885 57.9335 1.49661 58.0459 1.49661 58.1832ZM57.3505 59.6715C61.8163 61.9833 62.1057 67.4501 57.9127 70.2793C53.4648 73.2799 47.8126 69.7564 48.5265 64.4285C48.6836 63.2529 49.1984 61.9284 49.6694 61.4854C50.3543 60.8416 50.4461 60.8307 50.1268 61.4295C49.8899 61.873 49.9123 62.0088 50.1812 61.7626C50.4306 61.5334 50.6352 61.0909 50.6352 60.7782C50.6352 59.9921 52.8432 58.9488 54.5264 58.9398C55.2941 58.9358 56.5652 59.265 57.3505 59.6715ZM0 59.6815C0 59.8188 0.112245 59.9312 0.249434 59.9312C0.386623 59.9312 0.498869 59.8188 0.498869 59.6815C0.498869 59.5441 0.386623 59.4318 0.249434 59.4318C0.112245 59.4318 0 59.5441 0 59.6815ZM86.2534 60.574C85.321 61.2022 84.1093 62.4123 83.5605 63.2624C82.7633 64.4979 82.1293 64.859 80.4047 65.0598C73.6161 65.8494 72.4013 75.1188 78.6636 78.3475C79.3765 78.7151 83.6633 78.9094 91.0605 78.9094C102.368 78.9094 102.368 78.9094 104.064 77.2114C105.454 75.8195 105.76 75.1352 105.76 73.4157C105.76 71.6962 105.454 71.012 104.064 69.6201C102.924 68.4789 101.899 67.922 100.939 67.922C99.6635 67.922 99.4101 67.6388 98.5899 65.3C97.0504 60.9076 95.052 59.4318 90.6435 59.4318C88.6624 59.4318 87.4996 59.7344 86.2534 60.574ZM95.5054 62.1237C97.3951 63.566 97.9539 64.4001 98.4632 66.5331C98.7406 67.6963 98.5655 68.0054 97.2385 68.6921C96.3869 69.1331 95.8087 69.6126 95.9534 69.7579C96.0986 69.9027 96.7307 69.6615 97.3582 69.2215C99.6021 67.6478 103.292 68.5558 104.55 70.991C105.417 72.6701 105.449 73.9551 104.665 75.6771C103.535 78.1608 102.256 78.41 90.6435 78.41C80.3937 78.41 79.9003 78.365 78.3134 77.2863C77.3012 76.5981 76.3688 75.3585 75.9089 74.0874C75.2474 72.2605 75.2444 71.7836 75.8849 70.1C77.2927 66.3968 81.4029 64.9155 84.6949 66.9252C85.5934 67.4735 86.435 67.922 86.5657 67.922C86.9648 67.922 86.8291 66.4247 86.429 66.4128C86.2235 66.4068 85.5375 66.0032 84.905 65.5158C83.7556 64.6303 83.7556 64.6303 84.8626 63.2209C87.2911 60.1305 92.2289 59.6215 95.5054 62.1237ZM53.1869 63.16C52.1837 64.6927 52.1687 65.1142 53.1295 64.7447C53.7257 64.5159 53.8778 64.9105 53.8778 66.6889C53.8778 67.9165 54.1023 68.9209 54.3767 68.9209C54.6511 68.9209 54.8756 67.7697 54.8756 66.3628C54.8756 64.1454 54.9753 63.8871 55.6239 64.426C56.7668 65.3754 56.6121 63.7993 55.4597 62.7554C54.2719 61.6792 54.1407 61.7022 53.1869 63.16ZM100.273 62.1786C100.273 62.316 100.385 62.4283 100.522 62.4283C100.659 62.4283 100.771 62.316 100.771 62.1786C100.771 62.0413 100.659 61.9289 100.522 61.9289C100.385 61.9289 100.273 62.0413 100.273 62.1786ZM109.751 62.1786C109.751 62.316 109.863 62.4283 110.001 62.4283C110.138 62.4283 110.25 62.316 110.25 62.1786C110.25 62.0413 110.138 61.9289 110.001 61.9289C109.863 61.9289 109.751 62.0413 109.751 62.1786ZM83.81 68.6712C83.81 68.8085 83.9222 68.9209 84.0594 68.9209C84.1966 68.9209 84.3088 68.8085 84.3088 68.6712C84.3088 68.5338 84.1966 68.4214 84.0594 68.4214C83.9222 68.4214 83.81 68.5338 83.81 68.6712ZM5.48756 69.1706C5.48756 69.3079 5.5998 69.4203 5.73699 69.4203C5.87418 69.4203 5.98643 69.3079 5.98643 69.1706C5.98643 69.0332 5.87418 68.9209 5.73699 68.9209C5.5998 68.9209 5.48756 69.0332 5.48756 69.1706ZM8.48077 69.1706C8.48077 69.3079 8.59301 69.4203 8.7302 69.4203C8.86739 69.4203 8.97964 69.3079 8.97964 69.1706C8.97964 69.0332 8.86739 68.9209 8.7302 68.9209C8.59301 68.9209 8.48077 69.0332 8.48077 69.1706ZM82.3133 69.67C82.3133 69.8074 82.4256 69.9197 82.5628 69.9197C82.7 69.9197 82.8122 69.8074 82.8122 69.67C82.8122 69.5327 82.7 69.4203 82.5628 69.4203C82.4256 69.4203 82.3133 69.5327 82.3133 69.67ZM8.48077 70.1694C8.48077 70.3068 8.59301 70.4192 8.7302 70.4192C8.86739 70.4192 8.97964 70.3068 8.97964 70.1694C8.97964 70.0321 8.86739 69.9197 8.7302 69.9197C8.59301 69.9197 8.48077 70.0321 8.48077 70.1694ZM1.99548 71.9174C1.99548 72.1921 2.66895 72.4169 3.49208 72.4169C4.31521 72.4169 4.98869 72.1921 4.98869 71.9174C4.98869 71.6427 4.31521 71.418 3.49208 71.418C2.66895 71.418 1.99548 71.6427 1.99548 71.9174ZM5.06003 73.8163C4.71182 74.449 4.50678 75.348 4.60506 75.814C4.75322 76.5211 4.88842 76.4707 5.41622 75.5123C5.76443 74.8795 5.96946 73.9806 5.87119 73.5146C5.72302 72.8074 5.58783 72.8578 5.06003 73.8163ZM8.48077 73.7743C8.48077 75.2156 8.98213 76.4123 9.58576 76.4123C9.8806 76.4123 9.94645 75.8484 9.7469 75.0388C9.29592 73.2119 8.48077 72.3979 8.48077 73.7743ZM77.3247 73.6654C77.3247 73.8028 77.4369 73.9151 77.5741 73.9151C77.7113 73.9151 77.8235 73.8028 77.8235 73.6654C77.8235 73.5281 77.7113 73.4157 77.5741 73.4157C77.4369 73.4157 77.3247 73.5281 77.3247 73.6654ZM33.7096 77.8112C34.7876 78.367 36.4429 79.6281 37.3882 80.6134C39.1073 82.4054 39.1073 82.4054 37.5738 82.4054C34.174 82.4054 29.2861 85.77 27.4493 89.3749C26.2959 91.6383 25.6004 95.8899 26.3832 95.8899C26.689 95.8899 26.9409 95.2716 26.9439 94.5165C26.9514 92.4169 29.0696 88.3226 31.0476 86.5836C34.6868 83.3848 40.7396 82.4848 44.6927 84.5549C50.1637 87.4206 53.0018 94.6054 50.7629 99.9218C49.7188 102.402 47.1192 105.234 44.6961 106.532C42.7506 107.574 41.9633 107.634 28.1861 107.781C11.5628 107.958 10.3495 107.777 7.24008 104.659C2.95181 100.36 2.99521 94.7552 7.35183 90.2794C9.05796 88.5264 10.2827 87.9201 13.6066 87.1819C14.8877 86.8977 14.9676 86.9692 14.6752 88.1363C14.4797 88.9164 14.57 89.3974 14.9122 89.3974C15.216 89.3974 15.4649 88.9564 15.4649 88.4175C15.4649 85.0469 19.0398 79.6416 22.4202 77.9011C25.817 76.1516 30.4205 76.1151 33.7096 77.8112ZM60.3631 78.41C60.3631 78.7036 62.1092 78.9094 64.6035 78.9094C67.0978 78.9094 68.8439 78.7036 68.8439 78.41C68.8439 78.1163 67.0978 77.9106 64.6035 77.9106C62.1092 77.9106 60.3631 78.1163 60.3631 78.41ZM72.336 79.1591C72.336 79.2965 72.4482 79.4088 72.5854 79.4088C72.7226 79.4088 72.8348 79.2965 72.8348 79.1591C72.8348 79.0218 72.7226 78.9094 72.5854 78.9094C72.4482 78.9094 72.336 79.0218 72.336 79.1591ZM53.379 80.9071C53.379 81.2188 56.2889 81.4065 61.1114 81.4065C65.934 81.4065 68.8439 81.2188 68.8439 80.9071C68.8439 80.5955 65.934 80.4077 61.1114 80.4077C56.2889 80.4077 53.379 80.5955 53.379 80.9071ZM56.3722 83.4042C56.3722 83.7104 58.7832 83.9037 62.608 83.9037C66.4329 83.9037 68.8439 83.7104 68.8439 83.4042C68.8439 83.0981 66.4329 82.9048 62.608 82.9048C58.7832 82.9048 56.3722 83.0981 56.3722 83.4042ZM63.3563 89.1477C63.3563 91.3951 63.3563 91.3951 57.7116 91.3951C51.5845 91.3951 52.0824 91.6603 49.9832 87.2748C49.8844 87.069 52.8531 86.9002 56.5802 86.9002C63.3563 86.9002 63.3563 86.9002 63.3563 89.1477Z" fill="#808080"/>
<path fill-rule="evenodd" clip-rule="evenodd" d="M70.3411 2.49713C70.3411 3.87056 70.5656 4.99427 70.84 4.99427C71.1144 4.99427 71.3389 3.87056 71.3389 2.49713C71.3389 1.12371 71.1144 0 70.84 0C70.5656 0 70.3411 1.12371 70.3411 2.49713ZM66.3502 2.93913C66.3502 3.5694 68.8665 5.1386 69.2546 4.75055C69.4322 4.57225 69.0201 3.99741 68.3382 3.47301C66.9792 2.42771 66.3502 2.25891 66.3502 2.93913ZM73.0819 3.99841C72.584 4.54978 72.3231 5.14759 72.5027 5.32738C72.8669 5.69147 74.8309 4.08081 74.8309 3.41858C74.8309 2.68941 74.0233 2.9571 73.0819 3.99841ZM35.4228 12.7888C30.6292 14.5328 26.722 18.5028 25.3771 22.9961C24.8353 24.807 24.8243 24.813 22.4487 24.5848C19.1751 24.2696 15.3997 25.5941 13.5459 27.7077C11.5529 29.9806 10.8276 32.4642 11.0655 36.2049C11.3244 40.2718 13.046 42.9002 16.6174 44.6822C19.0404 45.8908 19.5767 45.9512 28.6586 46.0356C34.661 46.0911 36.877 46.2289 34.672 46.4102C31.1799 46.6964 31.1799 46.6964 31.0477 60.999C30.9155 75.3015 30.9155 75.3015 27.5556 75.5063C25.6634 75.6217 23.3332 76.1291 22.2217 76.667C19.5483 77.9615 16.6998 81.0025 15.696 83.6335C14.9372 85.6232 14.6928 85.829 12.7377 86.1226C9.6662 86.5836 6.32228 88.8964 4.68599 91.6922C3.55306 93.627 3.29515 94.6693 3.28617 97.3492C3.2737 101.196 4.43656 103.852 7.1968 106.278C10.0678 108.802 11.3105 108.951 27.9373 108.781C44.8479 108.608 45.1951 108.545 48.7082 105.028C51.2299 102.503 52.0266 100.552 52.2801 96.28C52.5081 92.4244 52.5081 92.4244 58.3069 92.2846C64.1053 92.1442 64.1053 92.1442 64.2539 89.5777C64.4031 87.0116 64.4031 87.0116 67.5524 86.674C70.7018 86.3359 70.7018 86.3359 71.0166 82.9972C71.1902 81.1608 71.3334 72.9557 71.3354 64.7636C71.3389 49.8682 71.3389 49.8682 68.9029 47.3117C66.4669 44.7551 66.4669 44.7551 68.4404 43.3238C73.2904 39.8068 74.2902 31.7111 70.5047 26.6055C67.9166 23.115 62.0699 21.1802 57.7332 22.3793C55.8914 22.8882 55.8425 22.8657 55.1466 21.1987C54.0286 18.5207 50.1499 14.7206 47.2505 13.462C43.8337 11.9797 38.4844 11.6756 35.4228 12.7888ZM45.5553 13.7802C48.3944 14.7486 52.5639 18.3959 53.9568 21.1297C54.9834 23.1444 54.9834 23.1444 52.9346 24.8485C51.8071 25.7854 50.8852 26.8711 50.8852 27.2602C50.8852 28.337 51.6774 28.1067 52.5475 26.7773C52.976 26.122 54.5055 24.9983 55.9458 24.2801C63.4892 20.5164 71.8377 25.6041 71.8377 33.965C71.8377 37.1059 70.6315 39.5691 67.8203 42.1691C65.6957 44.1343 65.6956 44.1343 64.1521 42.2939C62.6086 40.4536 62.6087 40.4536 50.2616 40.4536C37.9146 40.4536 37.9146 40.4536 37.9146 42.701C37.9146 44.9484 37.9146 44.9484 29.3092 44.9454C24.5764 44.9439 19.8461 44.7042 18.7975 44.413C14.1964 43.134 10.7562 37.4705 11.9356 33.116C13.6267 26.8706 19.9868 23.8062 25.7861 26.4421C28.297 27.5833 30.8237 30.8681 31.2513 33.5475C31.4194 34.5988 31.7526 35.4593 31.9921 35.4593C32.6127 35.4593 32.5338 34.5024 31.6758 31.6102C30.9454 29.148 27.7716 25.4708 26.3768 25.4708C25.4155 25.4708 26.3499 22.3988 28.1248 19.7219C31.9197 13.9994 39.061 11.5647 45.5553 13.7802ZM61.8603 45.9472C61.8603 49.9427 61.8603 49.9427 66.1007 49.9427C70.3411 49.9427 70.3411 49.9427 70.3416 67.7972C70.3421 85.6517 70.3421 85.6517 59.3505 85.4918C48.359 85.332 48.359 85.332 45.5803 83.8687C44.0522 83.0636 42.2433 82.4054 41.5609 82.4054C40.8779 82.4054 39.8981 81.9 39.3833 81.2817C38.5038 80.2264 38.4459 78.9948 38.43 61.0549C38.4135 41.9518 38.4135 41.9518 50.1369 41.9518C61.8603 41.9518 61.8603 41.9518 61.8603 45.9472ZM67.524 49.3493C63.1514 49.639 62.8581 49.4023 62.8581 45.5767C62.8581 42.2285 62.8581 42.2285 66.3686 45.711C69.8792 49.1935 69.8792 49.1935 67.524 49.3493ZM40.9079 43.9495C40.9079 44.2347 42.4045 44.449 44.3999 44.449C46.3954 44.449 47.892 44.2347 47.892 43.9495C47.892 43.6644 46.3954 43.4501 44.3999 43.4501C42.4045 43.4501 40.9079 43.6644 40.9079 43.9495ZM40.9079 46.4467C40.9079 46.7558 43.5683 46.9461 47.892 46.9461C52.2157 46.9461 54.8762 46.7558 54.8762 46.4467C54.8762 46.1375 52.2157 45.9472 47.892 45.9472C43.5683 45.9472 40.9079 46.1375 40.9079 46.4467ZM37.9146 63.2264C37.9146 79.0073 37.9146 79.0073 36.2933 77.93C35.4018 77.3372 34.0549 76.619 33.3001 76.3339C31.9282 75.815 31.9282 75.815 31.9282 61.6302C31.9282 47.4455 31.9282 47.4455 34.9214 47.4455C37.9146 47.4455 37.9146 47.4455 37.9146 63.2264ZM40.9079 48.9438C40.9079 49.248 43.1528 49.4432 46.6448 49.4432C50.1369 49.4432 52.3818 49.248 52.3818 48.9438C52.3818 48.6397 50.1369 48.4444 46.6448 48.4444C43.1528 48.4444 40.9079 48.6397 40.9079 48.9438ZM40.9079 51.9404C40.9079 52.256 44.3999 52.4398 50.3864 52.4398C56.3728 52.4398 59.8649 52.256 59.8649 51.9404C59.8649 51.6247 56.3728 51.4409 50.3864 51.4409C44.3999 51.4409 40.9079 51.6247 40.9079 51.9404ZM50.8773 58.345C48.9721 59.3434 46.8868 62.7879 46.9053 64.9065C46.9112 65.6037 47.3537 67.1389 47.888 68.3181C48.6598 70.0201 49.3412 70.6754 51.1935 71.4954C56.9066 74.0255 62.3383 70.0825 61.7391 63.8402C61.2432 58.6726 55.6509 55.8434 50.8773 58.345ZM57.3511 59.6715C59.6728 60.8731 60.8626 62.7809 60.8626 65.3015C60.8626 67.2358 60.5997 67.8036 58.926 69.4792C57.2957 71.1109 56.6596 71.418 54.9101 71.418C50.6079 71.418 48.0636 68.6762 48.5291 64.5414C48.6663 63.3228 49.1721 61.9554 49.653 61.5029C50.3295 60.8661 50.4368 60.8496 50.1275 61.4295C49.8905 61.873 49.9129 62.0088 50.1818 61.7626C50.4313 61.5334 50.6358 61.0909 50.6358 60.7782C50.6358 59.9921 52.8438 58.9488 54.527 58.9398C55.2947 58.9358 56.5658 59.265 57.3511 59.6715ZM86.254 60.574C85.3216 61.2022 84.1099 62.4123 83.5611 63.2624C82.7639 64.4979 82.1299 64.859 80.4053 65.0598C76.3929 65.5263 73.678 69.716 74.7855 73.7318C75.3832 75.8989 77.9119 78.2881 80.0262 78.6832C80.8727 78.841 86.3314 78.9004 92.1562 78.815C102.747 78.6597 102.747 78.6597 104.042 77.3627C104.94 76.4627 105.397 75.3914 105.532 73.8667C105.711 71.85 105.695 71.813 105.338 73.4157C104.247 78.3031 103.62 78.5024 89.9157 78.3126C79.232 78.1648 78.8633 78.1258 77.688 77.0191C77.0215 76.3918 76.1844 74.9949 75.8287 73.9151C74.9741 71.3231 75.9354 68.6442 78.2896 67.056C80.3579 65.6606 82.5509 65.6162 84.6956 66.9252C86.6172 68.0978 86.8038 68.1293 86.8038 67.2808C86.8038 66.9277 86.1168 66.233 85.2767 65.736C83.8689 64.9035 83.8046 64.7507 84.4536 63.7723C85.9183 61.5638 87.7277 60.6803 90.7853 60.6803C93.2981 60.6803 93.9571 60.8926 95.6123 62.2336C96.6669 63.0881 97.8472 64.6228 98.2359 65.6446C98.9253 67.4571 98.9068 67.533 97.4876 68.7491C96.3876 69.692 96.3332 69.8039 97.2666 69.2085C99.3139 67.902 102.114 68.1902 103.804 69.8813C104.606 70.6843 105.262 71.1538 105.262 70.9246C105.262 70.0521 102.133 67.922 100.851 67.922C99.6821 67.922 99.3912 67.5849 98.5906 65.3C97.051 60.9076 95.0526 59.4318 90.6441 59.4318C88.6631 59.4318 87.5002 59.7344 86.254 60.574ZM53.206 63.2274C52.6986 63.9241 52.4487 64.6478 52.6507 64.8346C52.8523 65.0218 53.1177 64.8945 53.2399 64.5509C53.7408 63.147 54.3364 64.0844 54.5085 66.5486C54.6916 69.1706 54.6916 69.1706 54.7839 66.4877C54.8637 64.1643 54.9765 63.8876 55.6245 64.426C56.5998 65.2366 56.5838 64.4505 55.5961 63.0391C54.6183 61.6412 54.3444 61.6627 53.206 63.2274ZM1.99609 71.9174C1.99609 72.1921 2.66957 72.4169 3.4927 72.4169C4.31583 72.4169 4.98931 72.1921 4.98931 71.9174C4.98931 71.6427 4.31583 71.418 3.4927 71.418C2.66957 71.418 1.99609 71.6427 1.99609 71.9174ZM5.06064 73.8163C4.71243 74.449 4.5074 75.348 4.60568 75.814C4.75384 76.5211 4.88903 76.4707 5.41684 75.5123C5.76505 74.8795 5.97008 73.9806 5.87181 73.5146C5.72364 72.8074 5.58845 72.8578 5.06064 73.8163ZM8.48139 73.7743C8.48139 75.2156 8.98275 76.4123 9.58638 76.4123C9.88121 76.4123 9.94706 75.8484 9.74752 75.0388C9.29654 73.2119 8.48139 72.3979 8.48139 73.7743ZM77.3253 73.6654C77.3253 73.8028 77.4375 73.9151 77.5747 73.9151C77.7119 73.9151 77.8241 73.8028 77.8241 73.6654C77.8241 73.5281 77.7119 73.4157 77.5747 73.4157C77.4375 73.4157 77.3253 73.5281 77.3253 73.6654ZM33.7102 77.8112C34.7882 78.367 36.4435 79.6281 37.3888 80.6134C39.1079 82.4054 39.1079 82.4054 37.5744 82.4054C34.1746 82.4054 29.2867 85.77 27.4499 89.3749C26.2965 91.6383 25.6011 95.8899 26.3838 95.8899C26.6896 95.8899 26.9415 95.2716 26.9445 94.5165C26.952 92.4169 29.0702 88.3226 31.0482 86.5836C34.6875 83.3848 40.7402 82.4848 44.6933 84.5549C50.1644 87.4206 53.0024 94.6054 50.7635 99.9218C49.7194 102.402 47.1198 105.234 44.6968 106.532C42.7512 107.574 41.964 107.634 28.1867 107.781C11.5634 107.958 10.3502 107.777 7.2407 104.659C2.95243 100.36 2.99583 94.7552 7.35245 90.2794C9.05858 88.5264 10.2833 87.9201 13.6073 87.1819C14.8884 86.8977 14.9682 86.9692 14.6758 88.1363C14.4803 88.9164 14.5706 89.3974 14.9128 89.3974C15.2166 89.3974 15.4656 88.9564 15.4656 88.4175C15.4656 85.0469 19.0404 79.6416 22.4208 77.9011C25.8176 76.1516 30.4211 76.1151 33.7102 77.8112ZM60.3637 78.41C60.3637 78.7036 62.1098 78.9094 64.6041 78.9094C67.0985 78.9094 68.8445 78.7036 68.8445 78.41C68.8445 78.1163 67.0985 77.9106 64.6041 77.9106C62.1098 77.9106 60.3637 78.1163 60.3637 78.41ZM72.3366 79.1591C72.3366 79.2965 72.4488 79.4088 72.586 79.4088C72.7232 79.4088 72.8355 79.2965 72.8355 79.1591C72.8355 79.0218 72.7232 78.9094 72.586 78.9094C72.4488 78.9094 72.3366 79.0218 72.3366 79.1591ZM53.3796 80.9071C53.3796 81.2188 56.2895 81.4065 61.112 81.4065C65.9346 81.4065 68.8445 81.2188 68.8445 80.9071C68.8445 80.5955 65.9346 80.4077 61.112 80.4077C56.2895 80.4077 53.3796 80.5955 53.3796 80.9071ZM56.3728 83.4042C56.3728 83.7104 58.7838 83.9037 62.6087 83.9037C66.4335 83.9037 68.8445 83.7104 68.8445 83.4042C68.8445 83.0981 66.4335 82.9048 62.6087 82.9048C58.7838 82.9048 56.3728 83.0981 56.3728 83.4042ZM63.357 89.1477C63.357 91.3951 63.3569 91.3951 57.7122 91.3951C51.5851 91.3951 52.083 91.6603 49.9838 87.2748C49.885 87.069 52.8538 86.9002 56.5808 86.9002C63.357 86.9002 63.357 86.9002 63.357 89.1477Z" fill="#676767"/>
<path fill-rule="evenodd" clip-rule="evenodd" d="M70.3411 2.49713C70.3411 3.87056 70.5656 4.99427 70.84 4.99427C71.1144 4.99427 71.3389 3.87056 71.3389 2.49713C71.3389 1.12371 71.1144 0 70.84 0C70.5656 0 70.3411 1.12371 70.3411 2.49713ZM66.3502 2.93913C66.3502 3.5694 68.8665 5.1386 69.2546 4.75055C69.4322 4.57225 69.0201 3.99741 68.3382 3.47301C66.9792 2.42771 66.3502 2.25891 66.3502 2.93913ZM73.0819 3.99841C72.584 4.54978 72.3231 5.14759 72.5027 5.32738C72.8669 5.69147 74.8309 4.08081 74.8309 3.41858C74.8309 2.68941 74.0233 2.9571 73.0819 3.99841ZM35.4228 12.7888C30.6292 14.5328 26.722 18.5028 25.3771 22.9961C24.8353 24.807 24.8243 24.813 22.4487 24.5848C19.1751 24.2696 15.3997 25.5941 13.5459 27.7077C11.5529 29.9806 10.8276 32.4642 11.0655 36.2049C11.3244 40.2718 13.046 42.9002 16.6174 44.6822C19.0404 45.8908 19.5767 45.9512 28.6586 46.0356C34.661 46.0911 36.877 46.2289 34.672 46.4102C31.1799 46.6964 31.1799 46.6964 31.0477 60.999C30.9155 75.3015 30.9155 75.3015 27.5556 75.5063C25.6634 75.6217 23.3332 76.1291 22.2217 76.667C19.5483 77.9615 16.6998 81.0025 15.696 83.6335C14.9372 85.6232 14.6928 85.829 12.7377 86.1226C9.6662 86.5836 6.32228 88.8964 4.68599 91.6922C3.55306 93.627 3.29515 94.6693 3.28617 97.3492C3.2737 101.196 4.43656 103.852 7.1968 106.278C10.0678 108.802 11.3105 108.951 27.9373 108.781C44.8479 108.608 45.1951 108.545 48.7082 105.028C51.23 102.503 52.0266 100.552 52.2801 96.28C52.5081 92.4244 52.5081 92.4244 58.3069 92.2846C64.1053 92.1442 64.1053 92.1442 64.2539 89.5777C64.4031 87.0116 64.4031 87.0116 67.746 86.629C73.3663 85.9858 69.6198 85.5068 58.5439 85.4519C48.4922 85.402 48.4922 85.4019 45.6471 83.9037C44.0822 83.0796 42.2433 82.4054 41.5609 82.4054C40.8779 82.4054 39.8981 81.9 39.3833 81.2817C38.5038 80.2264 38.4459 78.9948 38.43 61.0549C38.4135 41.9518 38.4135 41.9518 50.1369 41.9518C61.8603 41.9518 61.8603 41.9518 61.8603 45.9472C61.8603 49.9427 61.8603 49.9427 66.1007 49.9427C70.3411 49.9427 70.3411 49.9427 70.3561 66.5486C70.3666 77.9685 70.5287 82.8843 70.8749 82.289C71.1942 81.7411 71.3254 75.5652 71.2341 65.4519C71.0894 49.4802 71.0894 49.4802 68.7198 47.0725C66.4589 44.7746 65.8323 43.8022 66.7892 44.0744C67.8004 44.3621 70.5172 41.6717 71.6287 39.2814C73.5878 35.0692 73.1542 30.1793 70.5047 26.6055C67.9166 23.115 62.0699 21.1802 57.7332 22.3793C55.8914 22.8882 55.8425 22.8657 55.1466 21.1987C54.0286 18.5207 50.1499 14.7206 47.2505 13.462C43.8337 11.9797 38.4844 11.6756 35.4228 12.7888ZM45.5553 13.7802C48.3944 14.7486 52.5639 18.3959 53.9568 21.1297C54.9834 23.1444 54.9834 23.1444 52.9346 24.8485C51.8071 25.7854 50.8852 26.8711 50.8852 27.2602C50.8852 28.337 51.6774 28.1067 52.5475 26.7773C52.976 26.122 54.5055 24.9983 55.9458 24.2801C63.4892 20.5164 71.8377 25.6041 71.8377 33.965C71.8377 37.1059 70.6315 39.5691 67.8203 42.1691C65.6957 44.1343 65.6956 44.1343 64.1521 42.2939C62.6087 40.4536 62.6087 40.4536 50.2617 40.4536C37.9146 40.4536 37.9146 40.4536 37.9146 42.701C37.9146 44.9484 37.9146 44.9484 29.3092 44.9454C24.5764 44.9439 19.8461 44.7042 18.7975 44.413C14.1964 43.134 10.7562 37.4705 11.9356 33.116C13.6267 26.8706 19.9868 23.8062 25.7861 26.4421C28.297 27.5833 30.8237 30.8681 31.2513 33.5475C31.4194 34.5988 31.7526 35.4593 31.9921 35.4593C32.6127 35.4593 32.5338 34.5024 31.6758 31.6102C30.9454 29.148 27.7716 25.4708 26.3768 25.4708C25.4155 25.4708 26.3499 22.3988 28.1248 19.7219C31.9197 13.9994 39.061 11.5647 45.5553 13.7802ZM67.2232 46.151C68.6634 47.5309 69.8422 48.8364 69.8422 49.0517C69.8422 49.5112 64.8002 49.5831 63.6473 49.1401C63.0392 48.9063 62.8581 48.0893 62.8581 45.5832C62.8581 41.84 62.7014 41.8195 67.2232 46.151ZM40.9079 43.9495C40.9079 44.2347 42.4045 44.449 44.3999 44.449C46.3954 44.449 47.892 44.2347 47.892 43.9495C47.892 43.6644 46.3954 43.4501 44.3999 43.4501C42.4045 43.4501 40.9079 43.6644 40.9079 43.9495ZM40.9079 46.4467C40.9079 46.7558 43.5683 46.9461 47.892 46.9461C52.2157 46.9461 54.8762 46.7558 54.8762 46.4467C54.8762 46.1375 52.2157 45.9472 47.892 45.9472C43.5683 45.9472 40.9079 46.1375 40.9079 46.4467ZM37.9146 63.2264C37.9146 79.0073 37.9146 79.0073 36.2933 77.93C35.4018 77.3372 34.0549 76.619 33.3001 76.3339C31.9282 75.815 31.9282 75.815 31.9282 61.6302C31.9282 47.4455 31.9282 47.4455 34.9214 47.4455C37.9146 47.4455 37.9146 47.4455 37.9146 63.2264ZM40.9079 48.9438C40.9079 49.248 43.1528 49.4432 46.6449 49.4432C50.1369 49.4432 52.3818 49.248 52.3818 48.9438C52.3818 48.6397 50.1369 48.4444 46.6449 48.4444C43.1528 48.4444 40.9079 48.6397 40.9079 48.9438ZM40.9079 51.9404C40.9079 52.256 44.3999 52.4398 50.3864 52.4398C56.3728 52.4398 59.8649 52.256 59.8649 51.9404C59.8649 51.6247 56.3728 51.4409 50.3864 51.4409C44.3999 51.4409 40.9079 51.6247 40.9079 51.9404ZM50.9456 58.2881C46.2063 60.6254 45.7249 68.2461 50.1514 70.8611C52.9441 72.5102 55.0298 72.6731 57.5736 71.4405C60.474 70.0346 62.1068 66.9596 61.7296 63.6115C61.1749 58.6851 55.6604 55.9627 50.9456 58.2881ZM57.5202 59.7354C59.8953 60.93 60.8387 62.3779 60.8516 64.8485C60.8716 68.7371 58.2974 71.42 54.5499 71.416C52.3724 71.414 49.7358 70.0036 48.8653 68.3755C48.0497 66.8498 48.5336 62.5582 49.6386 61.5169C50.3085 60.8861 50.4288 60.8646 50.1275 61.4295C49.8905 61.873 49.9129 62.0088 50.1818 61.7626C50.4313 61.5334 50.6358 61.0909 50.6358 60.7782C50.6358 59.9921 52.8438 58.9488 54.527 58.9398C55.2947 58.9358 56.6417 59.2939 57.5202 59.7354ZM86.254 60.574C85.3216 61.2022 84.1099 62.4123 83.5611 63.2624C82.7639 64.4979 82.1299 64.859 80.4053 65.0598C76.3046 65.5368 73.693 69.6855 74.8309 73.9151C75.1263 75.0139 75.6102 75.9128 75.906 75.9128C76.2343 75.9128 76.3086 75.4748 76.0961 74.7891C75.2954 72.2026 75.2829 71.4989 76.0063 69.7654C76.8678 67.7013 79.3856 65.9288 81.4609 65.9263C82.2262 65.9253 83.7417 66.3783 84.8283 66.9332C87.2543 68.1722 87.6429 67.1354 85.2767 65.736C83.8689 64.9035 83.8046 64.7507 84.4536 63.7723C85.9048 61.5843 87.7327 60.6803 90.7064 60.6803C93.9202 60.6803 96.1925 61.9379 97.8263 64.6203C98.9956 66.5396 99.0296 65.7885 97.8797 63.4452C96.5731 60.7832 94.188 59.4318 90.7947 59.4318C88.6566 59.4318 87.5276 59.7159 86.254 60.574ZM53.6909 62.8593C53.189 63.4147 52.8957 64.1628 53.0394 64.5219C53.2359 65.0134 53.3107 65.0203 53.3402 64.5509C53.3616 64.2078 53.5921 63.9266 53.8525 63.9266C54.1124 63.9266 54.4077 65.1068 54.5085 66.5486C54.6916 69.1706 54.6916 69.1706 54.7839 66.4877C54.8637 64.1643 54.9765 63.8876 55.6245 64.426C56.6636 65.289 56.5708 64.2822 55.4883 62.9437C54.6033 61.85 54.6033 61.85 53.6909 62.8593ZM97.5295 68.6052C96.3227 69.7724 96.2718 69.8948 97.2666 69.237C97.9445 68.7885 99.2915 68.391 100.26 68.3535C101.641 68.3001 101.751 68.2357 100.772 68.0534C100.086 67.9255 99.4127 67.6718 99.2755 67.489C99.1383 67.3067 98.3526 67.8086 97.5295 68.6052ZM102.269 68.6712C102.269 68.8085 102.381 68.9209 102.518 68.9209C102.655 68.9209 102.768 68.8085 102.768 68.6712C102.768 68.5338 102.655 68.4214 102.518 68.4214C102.381 68.4214 102.269 68.5338 102.269 68.6712ZM103.266 69.1097C103.266 69.213 103.659 69.6066 104.139 69.9837C104.931 70.6044 104.948 70.587 104.328 69.7949C103.676 68.9628 103.266 68.6986 103.266 69.1097ZM104.763 71.1683C104.763 71.3056 104.875 71.418 105.012 71.418C105.15 71.418 105.262 71.3056 105.262 71.1683C105.262 71.031 105.15 70.9186 105.012 70.9186C104.875 70.9186 104.763 71.031 104.763 71.1683ZM1.99609 71.9174C1.99609 72.1921 2.66957 72.4169 3.4927 72.4169C4.31583 72.4169 4.98931 72.1921 4.98931 71.9174C4.98931 71.6427 4.31583 71.418 3.4927 71.418C2.66957 71.418 1.99609 71.6427 1.99609 71.9174ZM105.378 73.4157C105.378 74.3771 105.48 74.7707 105.606 74.2897C105.731 73.8088 105.731 73.0227 105.606 72.5417C105.48 72.0608 105.378 72.4543 105.378 73.4157ZM5.06064 73.8163C4.71243 74.449 4.5074 75.348 4.60568 75.814C4.75384 76.5211 4.88903 76.4707 5.41684 75.5123C5.76505 74.8795 5.97008 73.9806 5.87181 73.5146C5.72364 72.8074 5.58845 72.8578 5.06064 73.8163ZM8.48139 73.7743C8.48139 75.2156 8.98275 76.4123 9.58638 76.4123C9.88121 76.4123 9.94706 75.8484 9.74752 75.0388C9.29654 73.2119 8.48139 72.3979 8.48139 73.7743ZM77.3253 73.6654C77.3253 73.8028 77.4375 73.9151 77.5747 73.9151C77.7119 73.9151 77.8242 73.8028 77.8242 73.6654C77.8242 73.5281 77.7119 73.4157 77.5747 73.4157C77.4375 73.4157 77.3253 73.5281 77.3253 73.6654ZM104.763 75.6631C104.763 75.8005 104.875 75.9128 105.012 75.9128C105.15 75.9128 105.262 75.8005 105.262 75.6631C105.262 75.5258 105.15 75.4134 105.012 75.4134C104.875 75.4134 104.763 75.5258 104.763 75.6631ZM33.7102 77.8112C34.7882 78.367 36.4435 79.6281 37.3888 80.6134C39.1079 82.4054 39.1079 82.4054 37.5744 82.4054C34.1746 82.4054 29.2867 85.77 27.4499 89.3749C26.2965 91.6383 25.6011 95.8899 26.3838 95.8899C26.6896 95.8899 26.9415 95.2716 26.9445 94.5165C26.952 92.4169 29.0702 88.3226 31.0482 86.5836C34.6875 83.3848 40.7402 82.4848 44.6933 84.5549C50.1644 87.4206 53.0024 94.6054 50.7635 99.9218C49.7194 102.402 47.1198 105.234 44.6968 106.532C42.7512 107.574 41.964 107.634 28.1867 107.781C11.5634 107.958 10.3502 107.777 7.2407 104.659C2.95243 100.36 2.99583 94.7552 7.35245 90.2794C9.05858 88.5264 10.2833 87.9201 13.6073 87.1819C14.8884 86.8977 14.9682 86.9692 14.6758 88.1363C14.4803 88.9164 14.5706 89.3974 14.9128 89.3974C15.2166 89.3974 15.4656 88.9564 15.4656 88.4175C15.4656 85.0469 19.0404 79.6416 22.4208 77.9011C25.8176 76.1516 30.4211 76.1151 33.7102 77.8112ZM103.701 77.2863C103.081 78.0784 103.099 78.0958 103.89 77.4751C104.721 76.8223 104.985 76.4123 104.574 76.4123C104.471 76.4123 104.078 76.8053 103.701 77.2863ZM77.8242 77.6608C77.8242 77.7982 77.9364 77.9106 78.0736 77.9106C78.2108 77.9106 78.323 77.7982 78.323 77.6608C78.323 77.5235 78.2108 77.4111 78.0736 77.4111C77.9364 77.4111 77.8242 77.5235 77.8242 77.6608ZM60.3637 78.41C60.3637 78.7036 62.1098 78.9094 64.6041 78.9094C67.0985 78.9094 68.8445 78.7036 68.8445 78.41C68.8445 78.1163 67.0985 77.9106 64.6041 77.9106C62.1098 77.9106 60.3637 78.1163 60.3637 78.41ZM78.8219 78.1603C78.8219 78.2976 78.9341 78.41 79.0713 78.41C79.2085 78.41 79.3208 78.2976 79.3208 78.1603C79.3208 78.0229 79.2085 77.9106 79.0713 77.9106C78.9341 77.9106 78.8219 78.0229 78.8219 78.1603ZM102.269 78.1603C102.269 78.2976 102.381 78.41 102.518 78.41C102.655 78.41 102.768 78.2976 102.768 78.1603C102.768 78.0229 102.655 77.9106 102.518 77.9106C102.381 77.9106 102.269 78.0229 102.269 78.1603ZM85.1825 78.783C88.2695 78.8704 93.3205 78.8704 96.407 78.783C99.494 78.6951 96.9682 78.6237 90.7947 78.6237C84.6212 78.6237 82.096 78.6951 85.1825 78.783ZM72.3366 79.1591C72.3366 79.2965 72.4488 79.4088 72.586 79.4088C72.7232 79.4088 72.8355 79.2965 72.8355 79.1591C72.8355 79.0218 72.7232 78.9094 72.586 78.9094C72.4488 78.9094 72.3366 79.0218 72.3366 79.1591ZM53.3796 80.9071C53.3796 81.2188 56.2895 81.4065 61.112 81.4065C65.9346 81.4065 68.8445 81.2188 68.8445 80.9071C68.8445 80.5955 65.9346 80.4077 61.112 80.4077C56.2895 80.4077 53.3796 80.5955 53.3796 80.9071ZM56.3728 83.4042C56.3728 83.7104 58.7838 83.9037 62.6087 83.9037C66.4335 83.9037 68.8445 83.7104 68.8445 83.4042C68.8445 83.0981 66.4335 82.9048 62.6087 82.9048C58.7838 82.9048 56.3728 83.0981 56.3728 83.4042ZM63.357 89.1477C63.357 91.3951 63.357 91.3951 57.7123 91.3951C51.5851 91.3951 52.083 91.6603 49.9838 87.2748C49.885 87.069 52.8538 86.9002 56.5808 86.9002C63.357 86.9002 63.357 86.9002 63.357 89.1477Z" fill="#4D4D4D"/>
<path fill-rule="evenodd" clip-rule="evenodd" d="M70.3411 2.49713C70.3411 3.87056 70.5656 4.99427 70.84 4.99427C71.1144 4.99427 71.3389 3.87056 71.3389 2.49713C71.3389 1.12371 71.1144 0 70.84 0C70.5656 0 70.3411 1.12371 70.3411 2.49713ZM66.3502 2.93913C66.3502 3.5694 68.8665 5.1386 69.2546 4.75055C69.4322 4.57225 69.0201 3.99741 68.3382 3.47301C66.9792 2.42771 66.3502 2.25891 66.3502 2.93913ZM73.0819 3.99841C72.584 4.54978 72.3231 5.14759 72.5027 5.32738C72.8669 5.69147 74.8309 4.08081 74.8309 3.41858C74.8309 2.68941 74.0233 2.9571 73.0819 3.99841ZM35.4228 12.7888C30.6292 14.5328 26.722 18.5028 25.3771 22.9961C24.8353 24.807 24.8243 24.813 22.4487 24.5848C19.1751 24.2696 15.3997 25.5941 13.5459 27.7077C11.5529 29.9806 10.8276 32.4642 11.0655 36.2049C11.3244 40.2718 13.046 42.9002 16.6174 44.6822C19.0404 45.8908 19.5767 45.9512 28.6586 46.0356C34.661 46.0911 36.877 46.2289 34.672 46.4102C31.1799 46.6964 31.1799 46.6964 31.0477 60.999C30.9155 75.3015 30.9155 75.3015 27.5556 75.5063C25.6634 75.6217 23.3332 76.1291 22.2217 76.667C19.5483 77.9615 16.6998 81.0025 15.696 83.6335C14.9372 85.6232 14.6928 85.829 12.7377 86.1226C9.6662 86.5836 6.32228 88.8964 4.68599 91.6922C3.55306 93.627 3.29515 94.6693 3.28617 97.3492C3.2737 101.196 4.43656 103.852 7.1968 106.278C10.0678 108.802 11.3105 108.951 27.9373 108.781C44.8479 108.608 45.1951 108.545 48.7082 105.028C51.23 102.503 52.0266 100.552 52.2801 96.28C52.5081 92.4244 52.5081 92.4244 58.3069 92.2846C64.1053 92.1442 64.1053 92.1442 64.2559 89.5222C64.4011 87.0041 64.4634 86.9002 65.8363 86.9002C66.623 86.9002 67.6213 86.7639 68.0553 86.5971C70.3481 85.7166 67.8787 85.4019 58.6686 85.4019C48.4922 85.4019 48.4922 85.4019 45.6471 83.9037C44.0822 83.0796 42.2433 82.4054 41.5609 82.4054C40.8779 82.4054 39.8981 81.9 39.3833 81.2817C38.5038 80.2264 38.4459 78.9948 38.43 61.0549C38.4135 41.9518 38.4135 41.9518 50.1369 41.9518C61.8603 41.9518 61.8603 41.9518 61.8603 45.9472C61.8603 49.9427 61.8603 49.9427 63.2322 49.9267C64.4794 49.9122 64.5248 49.8508 63.7311 49.2475C63.0631 48.74 62.8581 47.8496 62.8581 45.4563C62.8581 42.7329 62.9549 42.4093 63.6064 42.9507C64.5817 43.7613 64.5657 42.9752 63.578 41.5638C62.8107 40.467 62.6511 40.4536 50.3579 40.4536C37.9146 40.4536 37.9146 40.4536 37.9146 42.701C37.9146 44.9484 37.9146 44.9484 29.3092 44.9454C24.5764 44.9439 19.8461 44.7042 18.7975 44.413C14.1964 43.134 10.7562 37.4705 11.9356 33.116C13.6267 26.8706 19.9868 23.8062 25.7861 26.4421C28.297 27.5833 30.8237 30.8681 31.2513 33.5475C31.4194 34.5988 31.7526 35.4593 31.9921 35.4593C32.6127 35.4593 32.5338 34.5024 31.6758 31.6102C30.9454 29.148 27.7716 25.4708 26.3768 25.4708C25.4155 25.4708 26.3499 22.3988 28.1248 19.7219C31.9197 13.9994 39.061 11.5647 45.5553 13.7802C48.3944 14.7486 52.5639 18.3959 53.9568 21.1297C54.9834 23.1444 54.9834 23.1444 52.9346 24.8485C51.8071 25.7854 50.8852 26.8711 50.8852 27.2602C50.8852 28.337 51.6774 28.1067 52.5475 26.7773C53.7358 24.9618 58.1363 22.9736 60.9659 22.9736C70.9083 22.9736 75.6386 35.255 68.2104 41.7845C66.1172 43.6244 65.6118 44.3955 66.5946 44.2512C68.1805 44.0185 70.4828 41.7456 71.6287 39.2814C73.5878 35.0692 73.1542 30.1793 70.5047 26.6055C67.9166 23.115 62.0699 21.1802 57.7332 22.3793C55.8914 22.8882 55.8425 22.8657 55.1466 21.1987C54.0286 18.5207 50.1499 14.7206 47.2505 13.462C43.8337 11.9797 38.4844 11.6756 35.4228 12.7888ZM40.9079 43.9495C40.9079 44.2347 42.4045 44.449 44.3999 44.449C46.3954 44.449 47.892 44.2347 47.892 43.9495C47.892 43.6644 46.3954 43.4501 44.3999 43.4501C42.4045 43.4501 40.9079 43.6644 40.9079 43.9495ZM40.9079 46.4467C40.9079 46.7558 43.5683 46.9461 47.892 46.9461C52.2157 46.9461 54.8762 46.7558 54.8762 46.4467C54.8762 46.1375 52.2157 45.9472 47.892 45.9472C43.5683 45.9472 40.9079 46.1375 40.9079 46.4467ZM37.9146 63.2264C37.9146 79.0073 37.9146 79.0073 36.2933 77.93C35.4018 77.3372 34.0549 76.619 33.3001 76.3339C31.9282 75.815 31.9282 75.815 31.9282 61.6302C31.9282 47.4455 31.9282 47.4455 34.9214 47.4455C37.9146 47.4455 37.9146 47.4455 37.9146 63.2264ZM40.9079 48.9438C40.9079 49.248 43.1528 49.4432 46.6449 49.4432C50.1369 49.4432 52.3818 49.248 52.3818 48.9438C52.3818 48.6397 50.1369 48.4444 46.6449 48.4444C43.1528 48.4444 40.9079 48.6397 40.9079 48.9438ZM70.384 66.174C70.4 76.1111 70.5891 82.74 70.84 82.1557C71.4426 80.7518 71.4426 50.8761 70.84 49.9427C70.5227 49.4512 70.3661 55.0388 70.384 66.174ZM40.9079 51.9404C40.9079 52.256 44.3999 52.4398 50.3864 52.4398C56.3728 52.4398 59.8649 52.256 59.8649 51.9404C59.8649 51.6247 56.3728 51.4409 50.3864 51.4409C44.3999 51.4409 40.9079 51.6247 40.9079 51.9404ZM50.9456 58.2881C45.9604 60.7468 45.7229 68.5298 50.5575 71.0115C53.2115 72.3734 56.4746 72.4094 58.2316 71.0959C60.7713 69.1981 61.575 67.6094 61.5935 64.454C61.6079 61.9918 61.4074 61.2941 60.3637 60.1749C57.7547 57.3771 54.2267 56.6699 50.9456 58.2881ZM57.8724 59.9327C60.1657 61.1038 60.9988 62.4308 60.9988 64.913C60.9988 68.9154 58.3453 71.418 54.1029 71.418C52.1144 71.418 51.5323 71.1668 50.0262 69.659C48.3565 67.9874 48.2806 67.7627 48.4976 65.1387C48.6453 63.3568 49.0459 62.0767 49.6266 61.5289C50.2906 60.9031 50.4218 60.8771 50.1275 61.4295C49.8905 61.873 49.9129 62.0088 50.1818 61.7626C50.4313 61.5334 50.6358 61.0909 50.6358 60.7782C50.6358 59.9931 52.8433 58.9488 54.522 58.9398C55.2873 58.9358 56.7953 59.3823 57.8724 59.9327ZM86.254 60.574C85.3216 61.2022 84.1099 62.4123 83.5611 63.2624C82.7639 64.4979 82.1299 64.859 80.4053 65.0598C76.3046 65.5368 73.693 69.6855 74.8309 73.9151C75.1263 75.0139 75.6102 75.9128 75.906 75.9128C76.2343 75.9128 76.3086 75.4748 76.0961 74.7891C75.2954 72.2026 75.2829 71.4989 76.0063 69.7654C76.8678 67.7013 79.3856 65.9288 81.4609 65.9263C82.2262 65.9253 83.7417 66.3783 84.8283 66.9332C87.2543 68.1722 87.6429 67.1354 85.2767 65.736C83.8689 64.9035 83.8046 64.7507 84.4536 63.7723C85.9118 61.5738 87.7302 60.6803 90.7454 60.6803C93.1334 60.6803 93.9301 60.9201 95.4811 62.1042C97.5384 63.6754 98.4828 63.5351 96.9872 61.881C94.5278 59.1601 89.2971 58.5233 86.254 60.574ZM53.7168 62.8304C52.6782 63.9795 52.6148 64.7691 53.629 63.9266C54.2785 63.3867 54.3873 63.6919 54.4531 66.238C54.5295 69.1706 54.5295 69.1706 54.8662 65.9243C55.2439 62.2805 54.944 61.4729 53.7168 62.8304ZM55.3751 63.8677C55.3751 64.1424 55.5995 64.5059 55.8739 64.6757C56.1483 64.8456 56.3728 64.7596 56.3728 64.485C56.3728 64.2103 56.1483 63.8467 55.8739 63.6769C55.5995 63.5071 55.3751 63.593 55.3751 63.8677ZM97.7789 64.1763C97.7789 64.3137 97.8911 64.426 98.0283 64.426C98.1655 64.426 98.2778 64.3137 98.2778 64.1763C98.2778 64.039 98.1655 63.9266 98.0283 63.9266C97.8911 63.9266 97.7789 64.039 97.7789 64.1763ZM98.2778 65.6746C98.2778 65.8119 98.39 65.9243 98.5272 65.9243C98.6644 65.9243 98.7766 65.8119 98.7766 65.6746C98.7766 65.5373 98.6644 65.4249 98.5272 65.4249C98.39 65.4249 98.2778 65.5373 98.2778 65.6746ZM98.7766 68.1717C98.7766 68.3091 98.8889 68.4214 99.0261 68.4214C99.1633 68.4214 99.2755 68.3091 99.2755 68.1717C99.2755 68.0344 99.1633 67.922 99.0261 67.922C98.8889 67.922 98.7766 68.0344 98.7766 68.1717ZM96.7812 69.1706C96.7812 69.3079 96.8934 69.4203 97.0306 69.4203C97.1678 69.4203 97.28 69.3079 97.28 69.1706C97.28 69.0332 97.1678 68.9209 97.0306 68.9209C96.8934 68.9209 96.7812 69.0332 96.7812 69.1706ZM103.266 69.1097C103.266 69.213 103.659 69.6066 104.139 69.9837C104.931 70.6044 104.948 70.587 104.328 69.7949C103.676 68.9628 103.266 68.6986 103.266 69.1097ZM104.763 71.1683C104.763 71.3056 104.875 71.418 105.012 71.418C105.15 71.418 105.262 71.3056 105.262 71.1683C105.262 71.031 105.15 70.9186 105.012 70.9186C104.875 70.9186 104.763 71.031 104.763 71.1683ZM1.99609 71.9174C1.99609 72.1921 2.66957 72.4169 3.4927 72.4169C4.31583 72.4169 4.98931 72.1921 4.98931 71.9174C4.98931 71.6427 4.31583 71.418 3.4927 71.418C2.66957 71.418 1.99609 71.6427 1.99609 71.9174ZM105.341 73.4157C105.341 74.1024 105.454 74.3836 105.592 74.04C105.731 73.6969 105.731 73.135 105.592 72.7914C105.454 72.4483 105.341 72.729 105.341 73.4157ZM5.06064 73.8163C4.71243 74.449 4.5074 75.348 4.60568 75.814C4.75384 76.5211 4.88903 76.4707 5.41684 75.5123C5.76505 74.8795 5.97008 73.9806 5.87181 73.5146C5.72364 72.8074 5.58845 72.8578 5.06064 73.8163ZM8.48139 73.7743C8.48139 75.2156 8.98275 76.4123 9.58638 76.4123C9.88121 76.4123 9.94706 75.8484 9.74752 75.0388C9.29654 73.2119 8.48139 72.3979 8.48139 73.7743ZM77.3253 73.6654C77.3253 73.8028 77.4375 73.9151 77.5747 73.9151C77.7119 73.9151 77.8242 73.8028 77.8242 73.6654C77.8242 73.5281 77.7119 73.4157 77.5747 73.4157C77.4375 73.4157 77.3253 73.5281 77.3253 73.6654ZM104.763 75.6631C104.763 75.8005 104.875 75.9128 105.012 75.9128C105.15 75.9128 105.262 75.8005 105.262 75.6631C105.262 75.5258 105.15 75.4134 105.012 75.4134C104.875 75.4134 104.763 75.5258 104.763 75.6631ZM33.7102 77.8112C34.7882 78.367 36.4435 79.6281 37.3888 80.6134C39.1079 82.4054 39.1079 82.4054 37.5744 82.4054C34.1746 82.4054 29.2867 85.77 27.4499 89.3749C26.2965 91.6383 25.6011 95.8899 26.3838 95.8899C26.6896 95.8899 26.9415 95.2716 26.9445 94.5165C26.952 92.4169 29.0702 88.3226 31.0482 86.5836C34.6875 83.3848 40.7402 82.4848 44.6933 84.5549C50.1644 87.4206 53.0024 94.6054 50.7635 99.9218C49.7194 102.402 47.1198 105.234 44.6968 106.532C42.7512 107.574 41.964 107.634 28.1867 107.781C11.5634 107.958 10.3502 107.777 7.2407 104.659C2.95243 100.36 2.99583 94.7552 7.35245 90.2794C9.05858 88.5264 10.2833 87.9201 13.6073 87.1819C14.8884 86.8977 14.9682 86.9692 14.6758 88.1363C14.4803 88.9164 14.5706 89.3974 14.9128 89.3974C15.2166 89.3974 15.4656 88.9564 15.4656 88.4175C15.4656 85.0469 19.0404 79.6416 22.4208 77.9011C25.8176 76.1516 30.4211 76.1151 33.7102 77.8112ZM103.967 76.9891C103.746 77.3462 103.83 77.4301 104.187 77.2089C104.504 77.0131 104.763 76.7539 104.763 76.6325C104.763 76.216 104.323 76.4133 103.967 76.9891ZM77.8242 77.6608C77.8242 77.7982 77.9364 77.9106 78.0736 77.9106C78.2108 77.9106 78.323 77.7982 78.323 77.6608C78.323 77.5235 78.2108 77.4111 78.0736 77.4111C77.9364 77.4111 77.8242 77.5235 77.8242 77.6608ZM60.3637 78.41C60.3637 78.7036 62.1098 78.9094 64.6041 78.9094C67.0985 78.9094 68.8445 78.7036 68.8445 78.41C68.8445 78.1163 67.0985 77.9106 64.6041 77.9106C62.1098 77.9106 60.3637 78.1163 60.3637 78.41ZM102.269 78.1603C102.269 78.2976 102.381 78.41 102.518 78.41C102.655 78.41 102.768 78.2976 102.768 78.1603C102.768 78.0229 102.655 77.9106 102.518 77.9106C102.381 77.9106 102.269 78.0229 102.269 78.1603ZM100.772 78.6597C100.772 78.797 100.884 78.9094 101.022 78.9094C101.159 78.9094 101.271 78.797 101.271 78.6597C101.271 78.5223 101.159 78.41 101.022 78.41C100.884 78.41 100.772 78.5223 100.772 78.6597ZM72.3366 79.1591C72.3366 79.2965 72.4488 79.4088 72.586 79.4088C72.7232 79.4088 72.8355 79.2965 72.8355 79.1591C72.8355 79.0218 72.7232 78.9094 72.586 78.9094C72.4488 78.9094 72.3366 79.0218 72.3366 79.1591ZM53.3796 80.9071C53.3796 81.2188 56.2895 81.4065 61.112 81.4065C65.9346 81.4065 68.8445 81.2188 68.8445 80.9071C68.8445 80.5955 65.9346 80.4077 61.112 80.4077C56.2895 80.4077 53.3796 80.5955 53.3796 80.9071ZM56.3728 83.4042C56.3728 83.7104 58.7838 83.9037 62.6087 83.9037C66.4335 83.9037 68.8445 83.7104 68.8445 83.4042C68.8445 83.0981 66.4335 82.9048 62.6087 82.9048C58.7838 82.9048 56.3728 83.0981 56.3728 83.4042ZM63.357 89.1477C63.357 91.3951 63.357 91.3951 57.7123 91.3951C51.5851 91.3951 52.083 91.6603 49.9838 87.2748C49.885 87.069 52.8538 86.9002 56.5808 86.9002C63.357 86.9002 63.357 86.9002 63.357 89.1477Z" fill="#3C3C3C"/>
<path fill-rule="evenodd" clip-rule="evenodd" d="M70.3411 2.49713C70.3411 3.87056 70.5656 4.99427 70.84 4.99427C71.1144 4.99427 71.3389 3.87056 71.3389 2.49713C71.3389 1.12371 71.1144 0 70.84 0C70.5656 0 70.3411 1.12371 70.3411 2.49713ZM66.3502 2.93913C66.3502 3.5694 68.8665 5.1386 69.2546 4.75055C69.4322 4.57225 69.0201 3.99741 68.3382 3.47301C66.9792 2.42771 66.3502 2.25891 66.3502 2.93913ZM73.0819 3.99841C72.584 4.54978 72.3231 5.14759 72.5027 5.32738C72.8669 5.69147 74.8309 4.08081 74.8309 3.41858C74.8309 2.68941 74.0233 2.9571 73.0819 3.99841ZM35.4228 12.7888C30.6292 14.5328 26.722 18.5028 25.3771 22.9961C24.8353 24.807 24.8243 24.813 22.4487 24.5848C19.1751 24.2696 15.3997 25.5941 13.5459 27.7077C11.5529 29.9806 10.8276 32.4642 11.0655 36.2049C11.3244 40.2718 13.046 42.9002 16.6174 44.6822C19.0404 45.8908 19.5767 45.9512 28.6586 46.0356C34.661 46.0911 36.877 46.2289 34.672 46.4102C31.1799 46.6964 31.1799 46.6964 31.0477 60.999C30.9155 75.3015 30.9155 75.3015 27.5556 75.5063C25.6634 75.6217 23.3332 76.1291 22.2217 76.667C19.5483 77.9615 16.6998 81.0025 15.696 83.6335C14.9372 85.6232 14.6928 85.829 12.7377 86.1226C9.6662 86.5836 6.32228 88.8964 4.68599 91.6922C3.55306 93.627 3.29515 94.6693 3.28617 97.3492C3.2737 101.196 4.43656 103.852 7.1968 106.278C10.0678 108.802 11.3105 108.951 27.9373 108.781C44.8479 108.608 45.1951 108.545 48.7082 105.028C51.2299 102.503 52.0266 100.552 52.2801 96.28C52.5081 92.4244 52.5081 92.4244 58.3069 92.2846C64.1053 92.1442 64.1053 92.1442 64.2549 89.5507C64.4046 86.9637 64.4091 86.9572 66.212 86.8038C67.2057 86.7194 68.1112 86.3698 68.2239 86.0262C68.383 85.5408 66.212 85.4019 58.4606 85.4019C48.4922 85.4019 48.4922 85.4019 45.6471 83.9037C44.0822 83.0796 42.2433 82.4054 41.5609 82.4054C40.8779 82.4054 39.8981 81.9 39.3833 81.2817C38.5038 80.2264 38.4459 78.9948 38.43 61.0549C38.4135 41.9518 38.4135 41.9518 50.1369 41.9518C61.8603 41.9518 61.8603 41.9518 61.8603 45.9472C61.8603 49.6095 61.9437 49.9427 62.8581 49.9427C63.4068 49.9427 63.8558 49.7179 63.8558 49.4432C63.8558 49.1685 63.6313 48.9438 63.357 48.9438C63.0751 48.9438 62.8581 47.5189 62.8581 45.6681C62.8581 43.6114 63.0437 42.5072 63.357 42.701C63.6313 42.8708 63.8558 42.704 63.8558 42.3309C63.8558 40.5959 62.8282 40.4536 50.2866 40.4536C37.9146 40.4536 37.9146 40.4536 37.9146 42.701C37.9146 44.9484 37.9146 44.9484 29.3092 44.9454C24.5764 44.9439 19.8461 44.7042 18.7975 44.413C14.1964 43.134 10.7562 37.4705 11.9356 33.116C13.6267 26.8706 19.9868 23.8062 25.7861 26.4421C28.297 27.5833 30.8237 30.8681 31.2513 33.5475C31.4194 34.5988 31.7526 35.4593 31.9921 35.4593C32.6127 35.4593 32.5338 34.5024 31.6758 31.6102C30.9454 29.148 27.7716 25.4708 26.3768 25.4708C25.4155 25.4708 26.3499 22.3988 28.1248 19.7219C31.9197 13.9994 39.061 11.5647 45.5553 13.7802C48.3944 14.7486 52.5639 18.3959 53.9568 21.1297C54.9834 23.1444 54.9834 23.1444 52.9346 24.8485C51.8071 25.7854 50.8852 26.8711 50.8852 27.2602C50.8852 28.337 51.6774 28.1067 52.5475 26.7773C53.7358 24.9618 58.1363 22.9736 60.9659 22.9736C70.9772 22.9736 75.6346 35.2585 68.1256 41.8589C66.1945 43.5565 65.989 43.9495 67.0311 43.9495C68.3317 43.9495 70.4728 41.7665 71.6462 39.2444C73.5259 35.2021 73.0619 29.9716 70.5247 26.6055C67.8857 23.105 62.0654 21.1817 57.7332 22.3793C55.8914 22.8882 55.8425 22.8657 55.1466 21.1987C54.0286 18.5207 50.1499 14.7206 47.2505 13.462C43.8337 11.9797 38.4844 11.6756 35.4228 12.7888ZM40.9079 43.9495C40.9079 44.2347 42.4045 44.449 44.3999 44.449C46.3954 44.449 47.892 44.2347 47.892 43.9495C47.892 43.6644 46.3954 43.4501 44.3999 43.4501C42.4045 43.4501 40.9079 43.6644 40.9079 43.9495ZM40.9079 46.4467C40.9079 46.7558 43.5683 46.9461 47.892 46.9461C52.2157 46.9461 54.8762 46.7558 54.8762 46.4467C54.8762 46.1375 52.2157 45.9472 47.892 45.9472C43.5683 45.9472 40.9079 46.1375 40.9079 46.4467ZM37.9146 63.2264C37.9146 79.0073 37.9146 79.0073 36.2933 77.93C35.4018 77.3372 34.0549 76.619 33.3001 76.3339C31.9282 75.815 31.9282 75.815 31.9282 61.6302C31.9282 47.4455 31.9282 47.4455 34.9214 47.4455C37.9146 47.4455 37.9146 47.4455 37.9146 63.2264ZM40.9079 48.9438C40.9079 49.248 43.1528 49.4432 46.6448 49.4432C50.1369 49.4432 52.3818 49.248 52.3818 48.9438C52.3818 48.6397 50.1369 48.4444 46.6448 48.4444C43.1528 48.4444 40.9079 48.6397 40.9079 48.9438ZM70.3486 66.5486C70.3536 77.1319 70.5222 82.3984 70.84 81.906C71.505 80.8756 71.505 50.4421 70.84 50.4421C70.5177 50.4421 70.3436 56.1385 70.3486 66.5486ZM40.9079 51.9404C40.9079 52.256 44.3999 52.4398 50.3864 52.4398C56.3728 52.4398 59.8649 52.256 59.8649 51.9404C59.8649 51.6247 56.3728 51.4409 50.3864 51.4409C44.3999 51.4409 40.9079 51.6247 40.9079 51.9404ZM50.9456 58.2881C47.6735 59.9017 46.2183 64.0075 47.6176 67.6758C48.2886 69.4353 48.9087 70.1085 50.6667 70.9875C51.8805 71.5943 53.0249 71.9394 53.21 71.7546C53.3945 71.5693 53.1795 71.418 52.7315 71.418C52.2841 71.418 51.1242 70.7203 50.1544 69.8678C48.5954 68.4979 48.3949 68.0489 48.4258 65.9972C48.4682 63.1939 48.9985 61.6792 49.9379 61.6792C50.3215 61.6792 50.6358 61.3486 50.6358 60.945C50.6358 60.0161 52.7031 58.9493 54.522 58.9398C56.706 58.9283 59.9048 60.8062 60.5314 62.4683C61.2283 64.3162 62.0813 64.3826 61.6279 62.5532C60.5957 58.39 55.1491 56.215 50.9456 58.2881ZM86.254 60.574C85.3216 61.2022 84.1099 62.4123 83.5611 63.2624C82.7609 64.5024 82.1319 64.859 80.3823 65.0623C76.3345 65.5333 73.7329 69.7704 74.8693 74.04C75.1437 75.0703 75.6102 75.9128 75.906 75.9128C76.2343 75.9128 76.3086 75.4748 76.0961 74.7891C75.2954 72.2026 75.2829 71.4989 76.0063 69.7654C76.8618 67.7148 79.3821 65.9288 81.424 65.9263C82.1693 65.9253 83.5696 66.3019 84.5359 66.7628C86.243 67.5779 87.7915 67.2773 86.3009 66.4202C83.6913 64.9205 83.6195 64.7302 85.0253 63.0571C87.4214 60.2064 92.1078 59.664 95.2137 61.8785C97.1523 63.2604 98.2339 63.2599 96.9842 61.878C94.5278 59.1601 89.2956 58.5243 86.254 60.574ZM50.3864 61.1798C50.3864 61.3171 50.2741 61.4295 50.1369 61.4295C49.9997 61.4295 49.8875 61.3171 49.8875 61.1798C49.8875 61.0424 49.9997 60.93 50.1369 60.93C50.2741 60.93 50.3864 61.0424 50.3864 61.1798ZM54.0271 62.5412C53.7562 62.8913 53.3447 63.5146 53.1122 63.9266C52.752 64.5644 52.8109 64.5774 53.5058 64.013C54.2396 63.4177 54.3414 63.6205 54.507 66.0107C54.6916 68.6712 54.6916 68.6712 54.7839 65.9882C54.8692 63.5136 54.944 63.3578 55.7492 63.9815C56.4307 64.5099 56.4047 64.3866 55.63 63.4187C55.0842 62.7365 54.6108 62.1172 54.5784 62.0418C54.5459 61.9664 54.298 62.1911 54.0271 62.5412ZM60.8626 66.9232C60.8626 67.2892 61.0123 67.4391 61.1954 67.2563C61.3779 67.073 61.3779 66.7733 61.1954 66.59C61.0123 66.4073 60.8626 66.5571 60.8626 66.9232ZM60.3637 68.1717C60.3637 68.3091 60.476 68.4214 60.6132 68.4214C60.7504 68.4214 60.8626 68.3091 60.8626 68.1717C60.8626 68.0344 60.7504 67.922 60.6132 67.922C60.476 67.922 60.3637 68.0344 60.3637 68.1717ZM59.0692 70.0446C58.1188 71.1683 58.1188 71.1683 59.2413 70.2169C60.2959 69.3229 60.5907 68.9209 60.1916 68.9209C60.0968 68.9209 59.592 69.4263 59.0692 70.0446ZM57.3705 71.1683C57.3705 71.3056 57.4828 71.418 57.62 71.418C57.7571 71.418 57.8694 71.3056 57.8694 71.1683C57.8694 71.031 57.7571 70.9186 57.62 70.9186C57.4828 70.9186 57.3705 71.031 57.3705 71.1683ZM1.99609 71.9174C1.99609 72.1921 2.66957 72.4169 3.4927 72.4169C4.31583 72.4169 4.98931 72.1921 4.98931 71.9174C4.98931 71.6427 4.31583 71.418 3.4927 71.418C2.66957 71.418 1.99609 71.6427 1.99609 71.9174ZM56.04 71.7511C56.2231 71.9339 56.5224 71.9339 56.7055 71.7511C56.8881 71.5678 56.7385 71.418 56.3728 71.418C56.0071 71.418 55.8575 71.5678 56.04 71.7511ZM5.06064 73.8163C4.71243 74.449 4.5074 75.348 4.60568 75.814C4.75384 76.5211 4.88903 76.4707 5.41684 75.5123C5.76505 74.8795 5.97008 73.9806 5.87181 73.5146C5.72364 72.8074 5.58845 72.8578 5.06064 73.8163ZM8.48139 73.7743C8.48139 75.2156 8.98275 76.4123 9.58638 76.4123C9.88121 76.4123 9.94706 75.8484 9.74752 75.0388C9.29654 73.2119 8.48139 72.3979 8.48139 73.7743ZM77.3253 73.6654C77.3253 73.8028 77.4375 73.9151 77.5747 73.9151C77.7119 73.9151 77.8241 73.8028 77.8241 73.6654C77.8241 73.5281 77.7119 73.4157 77.5747 73.4157C77.4375 73.4157 77.3253 73.5281 77.3253 73.6654ZM33.7102 77.8112C34.7882 78.367 36.4435 79.6281 37.3888 80.6134C39.1079 82.4054 39.1079 82.4054 37.5744 82.4054C34.1746 82.4054 29.2867 85.77 27.4499 89.3749C26.2965 91.6383 25.6011 95.8899 26.3838 95.8899C26.6896 95.8899 26.9415 95.2716 26.9445 94.5165C26.947 93.7614 27.4798 92.0193 28.1283 90.6459C33.3086 79.6755 48.8967 81.6473 51.3721 93.5856C52.3699 98.3955 49.5103 103.956 44.7207 106.52C42.7452 107.577 42.0134 107.633 28.1867 107.781C11.5634 107.958 10.3502 107.777 7.2407 104.659C2.95243 100.36 2.99583 94.7552 7.35245 90.2794C9.05858 88.5264 10.2833 87.9201 13.6073 87.1819C14.8884 86.8977 14.9682 86.9692 14.6758 88.1363C14.4803 88.9164 14.5706 89.3974 14.9128 89.3974C15.2166 89.3974 15.4656 88.9564 15.4656 88.4175C15.4656 85.0469 19.0404 79.6416 22.4208 77.9011C25.8176 76.1516 30.4211 76.1151 33.7102 77.8112ZM60.3637 78.41C60.3637 78.7036 62.1098 78.9094 64.6041 78.9094C67.0985 78.9094 68.8445 78.7036 68.8445 78.41C68.8445 78.1163 67.0985 77.9106 64.6041 77.9106C62.1098 77.9106 60.3637 78.1163 60.3637 78.41ZM72.3366 79.1591C72.3366 79.2965 72.4488 79.4088 72.586 79.4088C72.7232 79.4088 72.8355 79.2965 72.8355 79.1591C72.8355 79.0218 72.7232 78.9094 72.586 78.9094C72.4488 78.9094 72.3366 79.0218 72.3366 79.1591ZM53.3796 80.9071C53.3796 81.2188 56.2895 81.4065 61.112 81.4065C65.9346 81.4065 68.8445 81.2188 68.8445 80.9071C68.8445 80.5955 65.9346 80.4077 61.112 80.4077C56.2895 80.4077 53.3796 80.5955 53.3796 80.9071ZM56.3728 83.4042C56.3728 83.7104 58.7838 83.9037 62.6087 83.9037C66.4335 83.9037 68.8445 83.7104 68.8445 83.4042C68.8445 83.0981 66.4335 82.9048 62.6087 82.9048C58.7838 82.9048 56.3728 83.0981 56.3728 83.4042ZM63.357 89.1477C63.357 91.3951 63.3569 91.3951 57.7122 91.3951C51.5851 91.3951 52.083 91.6603 49.9838 87.2748C49.885 87.069 52.8538 86.9002 56.5808 86.9002C63.357 86.9002 63.357 86.9002 63.357 89.1477Z" fill="#706868"/>
</svg>
